<svg width="750" height="500" viewBox="0 0 750 500" fill="none" xmlns="http://www.w3.org/2000/svg">
<g clip-path="url(#clip0_207_2)">
<path d="M328.4 480.5C322.8 480.5 317.2 479.5 312.2 477.5C296.4 471.3 284 456.6 279 438.1C277.1 431 276.2 423.6 275.4 416.3C273.7 402.1 272.2 388.8 263.2 379.9C258.7 375.4 252.6 372.5 246.1 369.5C239.9 366.6 233.4 363.6 227.9 358.8C215.4 347.9 212.1 333 209 318.6C207.3 311.1 205.8 304 203 297.5C200.4 291.4 196.2 286.6 191.8 281.5C184.4 272.9 176 263.2 176.7 247.1C177.5 228.9 190 211.8 207.2 205.6C215.6 202.6 224.5 202.1 233 201.7C242.5 201.2 251.5 200.8 259.1 196.9C269.5 191.7 276.3 180.8 282.8 170.2C283.7 168.8 284.6 167.3 285.5 165.9C293 154.1 302.7 147.6 312.1 141.3C319.3 136.5 326 132 331.9 125.3C340.8 115 350.8 98.4 347.6 77.5C347.4 76.5 347.3 75.5 347.1 74.4C346.1 68.5 344.9 61.9 347.5 55.4C352.5 42.8 360.2 40.2 365.8 40.2C382.3 40.2 398.6 63.0999 403.2 70.0999C408.7 78.4999 412.6 86.7 413.5 91.9C417.4 113.5 412.4 135.3 407.1 153.7C405.4 159.8 403.9 166.7 402.3 174C397 198.8 391 226.7 371 241C363.6 246.2 355.2 248.8 347.1 251.3C340.3 253.4 333.8 255.4 328.2 258.8C313.8 267.5 306.2 286.2 310.6 302.5C311 303.8 311.4 305.1 311.8 306.5C313.1 310.6 314.6 315.2 314.3 320.2C313.8 328.1 309 334.2 304.8 339.6C302.3 342.8 300 345.7 298.5 348.9C293.5 359.5 298.8 372.5 306.6 379.8C314.2 387 325.4 391.6 340.6 394C343.2 394.4 345.9 394.7 348.6 395.1C355.8 396 363.3 396.9 370.5 399.3C382.8 403.3 391.8 411.2 395.4 420.9C397.7 427.3 397.2 434.8 394.1 441C391.4 446.3 387 450.1 381.7 451.6C379.7 452.2 377.8 452.4 376.1 452.6C374.2 452.8 372.5 453 371.2 453.6C368.6 454.7 366.7 457.7 364.7 460.9C363.9 462.2 363.1 463.5 362.1 464.7C354.6 474.5 342.1 480.5 328.4 480.5Z" stroke="#F5F5F5" stroke-miterlimit="10"/>
<path d="M399 73C385.7 52.8 362.4 31.3 352.1 57.5C349.7 63.6 351.5 70.4 352.5 76.9C355.5 96.4 348.3 114.2 335.6 128.7C321.3 145.1 302 149.2 289.7 168.7C281.8 181.1 274.4 194.9 261.3 201.5C245.3 209.5 225.6 204.4 208.8 210.5C193.5 216 182.3 231.3 181.6 247.5C180.6 270.2 199.8 277.9 207.5 295.7C216 315.3 213.8 340.1 231.1 355.2C241.5 364.3 256.8 366.7 266.6 376.5C281.7 391.5 278.1 416.3 283.7 436.9C287.9 452.6 298.8 467 313.9 472.9C329 478.8 348.2 474.8 357.8 461.6C361.2 457 363.7 451.1 368.9 448.8C372.4 447.3 376.4 447.6 380.1 446.6C389.6 443.9 393.9 431.7 390.5 422.4C387.1 413.1 378.1 406.9 368.8 403.9C359.4 400.8 349.5 400.3 339.7 398.8C326.4 396.8 312.9 392.6 303.1 383.3C293.3 374.1 288.2 358.8 293.9 346.6C298.3 337.1 308.5 330.1 309.2 319.7C309.6 314.2 307.1 309 305.7 303.6C300.7 285.3 309.3 264.1 325.5 254.3C338.7 246.4 355.5 245.6 368 236.7C392.2 219.5 394.6 178.6 402.2 152.3C407.8 132.9 412 112.6 408.5 92.7C407.7 88.4 404.1 80.8 399 73Z" stroke="#F5F5F5" stroke-miterlimit="10"/>
<path d="M328.4 465.5C324.7 465.5 320.9 464.8 317.6 463.5C306.4 459.1 297.1 447.9 293.4 434.2C291.8 428.2 291 421.6 290.2 414.6C288.4 399.3 286.4 381.9 273.7 369.3C267.3 362.9 259.4 359.3 252.4 356C246.9 353.4 241.6 351 237.7 347.6C228.9 340 226.5 328.6 223.6 315.5C221.9 307.6 220.1 299.5 216.7 291.7C213.2 283.5 207.8 277.3 203.1 271.8C195.5 263 191.2 257.5 191.6 247.8C192.1 235.7 200.8 223.9 212.2 219.8C218.5 217.5 225.9 217.1 233.7 216.7C244.3 216.2 255.3 215.6 265.8 210.3C279.9 203.2 288.2 189.9 295.5 178.1C296.4 176.7 297.2 175.3 298.1 173.9C303.9 164.8 311.5 159.7 320.4 153.8C328.1 148.7 336 143.4 343.2 135.2C359 117 365.7 96.2999 362.4 75.2999C362.2 74.1999 362 73.0999 361.8 71.9999C361 67.6999 360.3 63.5999 361.3 61.0999C361.8 59.6999 363.7 55.2999 365.7 55.2999C370.5 55.2999 381.1 63.8999 390.6 78.3999C395.8 86.3999 398.3 92.4999 398.7 94.5999C402 113.1 397.5 132.8 392.7 149.6C390.8 156.2 389.3 163.3 387.7 170.9C383 192.9 377.6 217.8 362.4 228.7C357 232.5 350.1 234.7 342.7 236.9C335.3 239.2 327.7 241.5 320.5 245.8C308 253.3 299.1 266.2 295.8 280.4C294.2 287.5 293.7 295.5 295.3 302.7C297.3 311.2 298.2 320.8 294.7 329.4C290.6 339.5 282 344.7 281.6 356.6C281.2 369.4 287 381.9 296.3 390.6C306.2 400 320 405.9 338.3 408.7C341.1 409.1 344 409.5 346.7 409.8C353.5 410.6 359.9 411.4 365.8 413.4C373.5 415.9 379.3 420.6 381.2 425.9C382.1 428.4 381.9 431.5 380.6 434C380.1 434.9 379.1 436.5 377.4 437C376.6 437.2 375.5 437.4 374.2 437.5C371.6 437.8 368.3 438.2 364.9 439.7C358.2 442.7 354.7 448.2 351.8 452.6C351.1 453.7 350.4 454.8 349.7 455.7C345.3 461.8 337.3 465.5 328.4 465.5Z" stroke="#F5F5F5" stroke-width="2" stroke-miterlimit="10"/>
<path d="M323.8 233.7C318.6 233.7 313.9 232.4 309.1 231L297.6 227.6C295.5 227 290.7 225.6 287.8 220.8C284.6 215.5 285.4 208.8 289.9 202.8C294.7 196.6 300.5 192.4 306.2 188.3C310.9 184.9 315.3 181.8 318.3 177.9C320.5 175.1 322.3 171.6 324.1 167.8C326 164 327.9 160.1 330.6 156.3C335.9 148.7 345 144.2 354.8 144.2C358.1 144.2 361.3 144.7 364.2 145.7C371.1 148 376.1 152.9 378 159C379.4 163.5 379.7 170.8 373.3 179.3C371 182.3 368.7 185.1 366.5 187.7C361.8 193.3 357.7 198.1 354.9 204.4C354.4 205.4 354 206.4 353.5 207.5C349.5 216.7 344.5 228.2 332.2 232.3C329.7 233.3 326.8 233.7 323.8 233.7Z" stroke="#F5F5F5" stroke-miterlimit="10"/>
<path d="M361.1 155.3C354.1 152.9 344.1 154.7 338.8 162.2C333.9 169.2 331.4 177.6 326.1 184.3C318.3 194.2 305.5 199.1 297.8 209.1C296.3 211 295 213.7 296.3 215.7C297.1 217.1 298.9 217.7 300.4 218.1C304.2 219.2 308 220.3 311.9 221.5C317.5 223.2 323.6 224.8 329.2 222.9C338.3 219.8 341.9 209.2 345.9 200.4C350.8 189.5 358.5 182.6 365.4 173.4C372.3 164.3 368.2 157.7 361.1 155.3Z" stroke="#F5F5F5" stroke-miterlimit="10"/>
<path d="M323.8 218.7C317.5 219.2 310.3 216.1 304.3 214.8C303.2 214.6 301.9 214.2 301.5 213.1C301 211.8 302.3 210.5 303.4 209.6C312.3 202.6 323 196.3 330.1 187.4C333.3 183.4 335.5 179 337.6 174.7C339.3 171.3 340.9 168 343 165.1C346.6 160 362.3 154.9 363.6 164.6C364.1 168.4 361 171.7 358.3 174.5C350.6 182.5 344.3 191.8 339.7 201.9C337.7 206.3 336 211 332.7 214.5C330.1 217.3 327 218.5 323.8 218.7Z" stroke="#F5F5F5" stroke-miterlimit="10"/>
<path d="M282.8 276.2C275.4 260.4 213.7 211.2 211.4 251.1C210.8 261.6 219.4 270.2 221.9 280.4C223.6 287 222.6 294 223.5 300.8C224.9 311.9 232.6 326.8 239.5 335.6C242.7 339.7 247.7 342.6 252.8 341.8C265.7 339.8 262.7 325.6 266.7 317.1C271.3 307.5 283.1 302.1 285.5 291.3C286.6 286.2 285 280.9 282.8 276.2Z" stroke="#F5F5F5" stroke-miterlimit="10"/>
<path d="M251.1 336.9C248.5 336.9 245.5 335.2 243.4 332.5C237.1 324.4 229.7 310.3 228.4 300.2C228.1 297.7 228 295.1 228 292.4C227.9 288.1 227.8 283.7 226.7 279.2C225.5 274.6 223.4 270.4 221.3 266.4C218.6 261.2 216 256.3 216.3 251.4C216.9 240.8 222 240.8 224.5 240.8C241.1 240.8 273.3 267.7 278.3 278.3C280.6 283.2 281.3 287 280.6 290.2C279.6 294.9 275.8 298.6 271.9 302.6C268.3 306.2 264.6 310 262.2 314.9C260.7 318.1 260 321.7 259.4 325.1C258 332.9 257 336 252 336.8C251.7 336.8 251.4 336.9 251.1 336.9Z" stroke="#F5F5F5" stroke-miterlimit="10"/>
<path d="M249.6 323.8C245.2 324.6 240.8 316.3 239.9 313.1C238.3 307.6 239 301.8 239 296.1C239 283.5 235.6 270.9 229.4 259.9C228.5 258.3 227.5 256.7 227.2 254.9C226.9 253.1 227.5 251 229.1 250.1C231.5 248.7 234.3 250.5 236.4 252.3C244.3 258.7 252.1 265.2 260 271.6C264.2 275.1 268.8 279.1 269.4 284.5C270 289.5 267.1 294.3 263.6 298C260.1 301.7 256 304.8 253.2 309C251.7 311.3 250.6 314.2 250.6 317C250.6 319.5 253.1 323.1 249.8 323.8C249.7 323.8 249.7 323.8 249.6 323.8Z" stroke="#F5F5F5" stroke-miterlimit="10"/>
<path d="M248.9 298.3C248.6 298.3 248.4 298.1 248.3 297.9C248.2 297.6 248.4 297.2 248.5 296.8C249.5 294.7 248.4 291.6 248 289.4C247.5 287 246.8 284.6 246.2 282.2C245.7 280.2 245.1 278.2 244.9 276.1C244.8 275.2 244.5 273.5 245.4 272.8C245.5 272.8 245.5 272.7 245.6 272.7C247.7 271.8 250.2 274.8 251.3 276.2C252 277.1 252.6 278.1 253.3 278.9C254.4 280.2 255.7 281.2 256.9 282.3C257.8 283.1 259.2 284.3 259.4 285.6C259.5 286.2 258.9 288.1 256.3 291C255.3 292 254.3 293 253.1 294.1C251.9 295.2 251.4 296.7 250.2 297.7C249.9 297.9 249.6 298.1 249.3 298.2C249.1 298.3 249 298.3 248.9 298.3Z" stroke="#F5F5F5" stroke-miterlimit="10"/>
<path d="M451.8 452.5C441.2 452.5 429.9 445.5 423.2 434.7C418.3 426.9 415.8 418.3 413.3 409.9C412.4 406.8 411.4 403.7 410.4 400.6C406.1 387.9 400 379.6 392.3 376.1C388.9 374.5 384.9 373.8 380.2 373.8C375.1 373.8 369.9 374.6 364.4 375.5C361.6 375.9 358.6 376.4 355.7 376.7C353.6 376.9 351.4 377.1 349.3 377.1C332.5 377.1 320.4 370.2 316.8 358.6C313.8 349 317.9 339.2 321.3 332.6C322.1 331 323 329.3 323.9 327.7C327.9 320.2 331.7 313.1 331.9 305.7C332 303.6 331.7 301.3 331.5 299C331.1 295.4 330.7 291.6 331.3 287.6C333.7 271.4 350.9 262.2 366.9 260.3C368.8 260.1 370.8 259.8 372.6 259.6C380.9 258.5 388.8 257.6 396 257.6C416.6 257.6 429 266.3 437.2 286.8C439.3 291.9 440.9 297.2 442.5 302.3C444.7 309.1 446.7 315.6 449.6 321.7C457.2 337.7 471.4 352.1 490.7 363.5C492.2 364.4 493.7 365.2 495.2 366.1C504.6 371.5 514.3 377 520.3 386.7C524.7 393.9 525.4 404.1 522 411.9C519.3 418 514.6 422.1 508.6 423.4C507.1 423.7 505.5 423.9 503.7 423.9C502.7 423.9 501.7 423.9 500.7 423.8C499.8 423.8 499 423.7 498.1 423.7C497.4 423.7 496.7 423.7 496.2 423.8C489.6 424.5 484.4 430.2 478.9 436.3C473.1 442.7 467 449.4 458.2 451.8C456.1 452.2 454 452.5 451.8 452.5Z" stroke="#F5F5F5" stroke-miterlimit="10"/>
<path d="M516.1 389.2C509.9 379.1 498.5 373.7 488.2 367.7C470.2 357.1 454 342.6 445.1 323.8C439.8 312.5 437.2 300.2 432.5 288.6C419.6 256.6 397.8 261.6 367.4 265.3C353.6 267 338.2 274.6 336.2 288.4C335.3 294.2 337 300 336.8 305.9C336.5 316.4 330.4 325.7 325.6 335C322.1 341.9 319.1 349.8 321.4 357.2C325.3 369.9 341.8 373.4 355 371.8C368.2 370.3 382.2 366.1 394.3 371.6C405 376.5 411.2 387.8 415 399C418.8 410.2 421.1 422 427.3 432C433.6 442 445.4 449.8 456.8 446.7C472.5 442.5 479.4 420.4 495.6 418.6C499.6 418.2 503.7 419.1 507.6 418.3C519.3 416 522.3 399.4 516.1 389.2Z" stroke="#F5F5F5" stroke-miterlimit="10"/>
<path d="M451.8 437.5C446.4 437.5 439.9 433.1 435.9 426.8C432.1 420.8 429.9 413.4 427.6 405.7C426.6 402.5 425.7 399.2 424.5 395.9C418.8 379.1 410 367.9 398.4 362.6C393 360.1 387 358.9 380.1 358.9C373.9 358.9 367.8 359.9 361.9 360.8C359.1 361.2 356.4 361.7 353.8 362C352.3 362.2 350.7 362.3 349.1 362.3C341.8 362.3 332.7 360.2 330.9 354.4C329.9 351.1 331 346.4 334.4 339.7C335.2 338.2 336 336.6 336.9 335.1C341.4 326.8 346.4 317.4 346.7 306.4C346.8 303.3 346.5 300.3 346.2 297.7C345.9 294.9 345.6 292.2 345.9 290.1C346.8 284.1 354.8 277.1 368.4 275.4C370.4 275.2 372.3 274.9 374.2 274.7C382.4 273.7 389.5 272.8 395.8 272.8C408.3 272.8 416.4 275.9 423.1 292.6C425 297.2 426.5 302 428.1 307C430.3 314 432.6 321.2 435.9 328.3C444.8 347 461 363.7 483 376.6C484.5 377.5 486.1 378.4 487.7 379.3C495.8 383.9 503.5 388.3 507.4 394.7C509.3 397.8 509.6 402.7 508.2 406.2C507.2 408.6 505.9 408.9 505.5 408.9C505.1 409 504.5 409 503.6 409C502.8 409 502 409 501.2 408.9C500.2 408.9 499.1 408.8 497.9 408.8C496.6 408.8 495.5 408.9 494.4 409C482.1 410.3 474.4 418.8 467.6 426.3C463 431.3 458.7 436.1 454.1 437.4C453.5 437.4 452.7 437.5 451.8 437.5Z" stroke="#F5F5F5" stroke-miterlimit="10"/>
<path d="M397.9 293.8C390.5 284.9 379.3 280 367.9 287.4C362.4 291 362.1 298.8 359 304.6C355.6 311 348.4 315.2 346.5 322.2C344.6 329.5 349.3 337 355 341.9C358.8 345.2 361.3 345.1 365.7 343.7C370.1 342.3 373.6 341.9 378.4 342.3C389 343.1 399.3 346.3 410 345.7C413.9 345.5 418.2 344.4 420.1 341C422.2 337.2 420.2 332.6 418.2 328.8C411.9 317 406.5 304.2 397.9 293.8Z" stroke="#F5F5F5" stroke-miterlimit="10"/>
<path d="M407.2 340.8C397.6 340.5 388.3 338.2 378.8 337.4C377.6 337.3 376.4 337.3 375.3 337.3C367.9 337.3 360.3 342.1 354.4 335C351.8 331.8 350.9 327.4 351.9 323.4C353.5 316.6 360.3 313.1 363.5 307.1C364.8 304.7 365.6 302.2 366.4 299.8C367.6 296.2 368.6 293.1 370.7 291.7C373.6 289.8 376.5 288.9 379.4 288.9C386.3 288.9 391.6 294 394.1 297.1C400.4 304.8 405.2 314.2 409.7 323.4C411.3 326.5 412.7 329.4 414.5 332.4C415.8 334.6 416.5 337.7 414.7 339.5C413.4 340.8 411.4 341 409.6 341C408.8 340.8 408 340.8 407.2 340.8Z" stroke="#F5F5F5" stroke-miterlimit="10"/>
<path d="M400.5 329.2C399.9 329.9 398.9 330.3 397.9 330.4C396.6 330.5 395.3 330.1 394 329.7C388.3 328.1 382.5 327.3 376.6 327.4C373.6 327.4 370.5 327.6 367.6 328.2C365.7 328.5 362.7 330.1 361.6 327.5C360.5 325.1 364.1 322.1 365.6 320.5C367.8 318.1 370.4 315.4 372.4 311.8C374.1 308.7 374.4 305.6 375.8 302.5C376.4 301.1 377.4 299.9 378.8 299.4C380.7 298.7 382.8 299.5 384.3 300.8C387.4 303.5 390 308 392.2 311.4C394.9 315.6 397.4 319.9 400.1 324.2C400.9 325.5 401.7 326.9 401.2 328.3C401 328.6 400.8 328.9 400.5 329.2Z" stroke="#F5F5F5" stroke-miterlimit="10"/>
<path d="M387.8 320.8C387.6 321.1 387.3 321.4 386.9 321.5C386.5 321.6 386 321.6 385.6 321.6C383.4 321.6 381.2 321.3 379 321C378.5 320.9 377.9 320.9 377.5 320.5C377 320.1 376.8 319.5 377 318.9C377.2 318.1 378.3 317.8 378.7 317C379.2 316.1 379.4 315 379.6 313.9C379.9 312.9 381.1 309.7 382.5 311.4C382.8 311.8 382.9 312.3 383.1 312.7C383.8 315 385.2 317.1 386.9 318.7C387.4 319.2 388 319.8 387.9 320.5C387.8 320.7 387.8 320.7 387.8 320.8Z" stroke="#F5F5F5" stroke-miterlimit="10"/>
<path d="M465.5 372.6C458.8 370.4 452.2 367 445.9 363.7C433.8 357.4 430.4 368 429.3 378.2C428.6 385.2 429.4 392.3 431.9 398.9C434.2 405.2 441 410.5 441.5 417.2C441.7 420.4 441.2 424.9 444.4 425.6C447 426.2 448.8 423.2 450.6 421.1C454.3 416.9 460.4 416.2 465.7 414.4C475.2 411.2 483.3 402.6 483.7 392.6C484 383.3 475.4 375.8 465.5 372.6Z" stroke="#F5F5F5" stroke-miterlimit="10"/>
<path d="M450.1 408.5C450 408.5 449.9 408.4 449.8 408.4C447.1 407.2 446.1 402.9 444.5 400.6C443.2 398.7 441.8 396.8 441.3 395.4C439.1 389.3 437.5 381.4 439.8 375.1C441.6 370 447.5 375.8 450.7 377.3C454.5 379.1 458.4 380.8 462.5 382.1C468.9 384.2 473.9 388.6 473.7 392.2C473.5 397.4 468.7 402.9 462.5 405C461.5 405.3 460.3 405.7 459.1 406C456.4 406.7 453 409.5 450.1 408.5Z" stroke="#F5F5F5" stroke-miterlimit="10"/>
<path d="M452.1 402.7C449.8 402.2 449.8 399.4 448.6 397.8C447.7 396.6 446.3 394.5 446 393.7C445 391 444.3 388.2 443.9 385.3C443.8 384.2 443.2 380.7 444.4 380C445.6 379.3 451.2 383 452.5 383.5C456.2 385 460 386.6 463.7 388.1C465.5 388.8 467.4 389.7 468 391.5C468.5 392.9 468 394.5 467.1 395.7C466.2 396.9 464.9 397.7 463.5 398.4C461 399.8 458.5 401 455.9 402C454.7 402.5 453.4 402.9 452.1 402.6C452.2 402.7 452.2 402.7 452.1 402.7Z" stroke="#F5F5F5" stroke-miterlimit="10"/>
<path d="M654.3 405.5C642.6 392.3 634.4 372.3 644 357.6C648.7 350.3 656.8 346 663.5 340.6C681.8 325.9 691.3 299.1 681.5 277.8C671.6 256.5 640.1 247.2 622.8 263.1C612.1 273 609.5 281 595.8 285.1C585.4 288.2 571.6 287.8 566.3 299.4C562.8 307.1 564.3 319 556.1 321.4C553.8 322.1 551.3 321.6 549 320.9C527.5 314.8 513.7 294.1 494.4 282.8C487.3 278.7 478.9 275.8 470.9 277.6C462.9 279.5 456 287.4 457.7 295.5C459.3 303.1 467 307.3 472.9 312.4C484.8 322.8 490 338.9 500.4 350.7C510.1 361.8 523.8 368.6 535.1 378.1C570.6 407.6 542.8 451 500.5 440.6C498.1 440 495.6 439.2 493.1 439.4C475 440.9 506.4 456.1 507.3 458.5C509.7 464.5 509.2 471.2 510.8 477.5C513.8 489.1 524 497.7 535.2 502.1C546.4 506.5 558.5 507.3 570.5 508.3C591.9 510.2 611.2 519.3 632.9 518.4C652.3 517.6 672.5 510 683.9 494.2C694 480.3 695.8 460.9 688.6 445.3C681.2 429.3 665.9 418.7 654.3 405.5Z" stroke="#F5F5F5" stroke-miterlimit="10"/>
<path d="M638 507.9C636.2 508.1 634.4 508.3 632.5 508.3C621.4 508.8 610.6 506.2 599.2 503.5C590.3 501.4 581.2 499.2 571.4 498.3L569.3 498.1C558.4 497.2 548.1 496.3 538.9 492.7C529.3 489 522.5 482.3 520.6 474.9C519.1 469.1 515.6 461.1 518.8 454.8C523.6 445.4 534.9 448.4 542.5 443.2C550.7 437.6 557 429.4 559.8 419.9C564.9 402.5 558.2 384 541.6 370.2C537 366.4 532.1 363 527.5 359.8C520.2 354.8 513.3 350 508 344C504.1 339.5 500.9 334.2 497.5 328.5C492.6 320.2 487.5 311.7 479.5 304.7C478 303.4 476.5 302.2 475 301C471.6 298.3 468 295.5 467.5 293.2C467.1 291.3 469.8 287.9 473.2 287.1C473.6 287 474.1 286.9 474.5 286.9C478.6 286.4 483.7 287.9 489.4 291.2C496.3 295.2 502.6 300.8 509.2 306.6C520 316.1 531.2 326 546.3 330.3C548.8 331 552.2 331.8 556 331.3C557 331.2 558 331 558.9 330.7C570.1 327.4 572.4 316.4 573.7 309.7C574.2 307.3 574.7 304.7 575.4 303.2C577.2 299.3 581.2 298.1 590.1 296.4C592.9 295.8 595.8 295.2 598.7 294.4C611 290.7 616.7 284.2 622.2 278C624.4 275.5 626.7 272.9 629.6 270.2C632.7 267.3 636.7 265.6 641.4 265C653.8 263.5 667.4 270.9 672.5 281.7C676.1 289.5 676.5 299 673.6 308.5C670.7 317.9 664.9 326.5 657.4 332.6C655.7 333.9 654 335.2 652.1 336.6C646.5 340.6 640.2 345.2 635.7 352C627.5 364.6 625.6 387.9 646.9 412C650.9 416.5 655.1 420.6 659.3 424.6C667.6 432.6 675.4 440.1 679.7 449.3C685.4 461.6 683.9 477.2 676 488.1C668.1 498.8 654.4 506 638 507.9Z" stroke="#F5F5F5" stroke-miterlimit="10"/>
<path d="M634.9 498.6C626.9 498.9 618.7 497.6 610.7 496.4C592.6 493.5 574.6 490.6 556.5 487.7C549.7 486.6 536.8 482.7 531.7 478.1C527.9 474.8 526.6 468.1 530.4 464.8C532.4 463 535.3 462.6 538 462C554.2 458.5 566.5 445 570.6 429.2C575.4 410.5 569.3 390.2 557.9 374.7C548.8 362.4 531.3 353.2 519.1 344C517.5 342.8 515.9 341.6 515.1 339.8C514.3 338 514.7 335.5 516.4 334.6C518.8 333.4 521.3 335.6 523.2 337.5C535.3 349 555.7 348.4 569.6 340.4C577.9 335.6 580.9 327.9 587 321.1C590.1 317.6 594.1 315 597.9 312.4C608.3 305.4 618.7 298.5 629 291.5C635.8 287 643.9 282.2 651.6 284.8C658.8 287.3 662.6 295.9 661.6 303.5C660.6 311.1 655.7 317.6 650.2 322.9C644.7 328.2 638.3 332.6 632.9 338C622.5 348.5 616.2 362.9 615.4 377.6C614.7 392.3 619.5 407.3 628.8 418.7C636.7 428.5 647.6 435.6 656.1 445C664.6 454.3 670.8 467.6 666.5 479.5C662.9 489.5 652.7 495.9 642.2 497.9C639.9 498.2 637.4 498.5 634.9 498.6Z" stroke="#F5F5F5" stroke-miterlimit="10"/>
<path d="M646.4 483.2C642.9 483.4 639.4 483.1 635.9 482.7C614.9 480.4 594 478.2 573 475.9C570.7 475.7 568.2 475.3 566.8 473.5C565.1 471.4 565.7 468.1 567.4 466C569.1 463.9 571.6 462.6 573.9 461.1C597 446.6 600.2 417.1 592.5 393.1C590.5 386.9 587.8 380.9 584.5 375.2C581.6 370 563.4 361.2 577.7 354.7C580.4 353.4 583.5 353.3 586.5 352.6C595.3 350.3 599.4 340.4 604.8 334.1C610.4 327.6 617.4 322.4 624.5 317.7C630.7 313.6 641.2 309.9 645.8 304.3C647.2 302.6 648.4 300.7 650.2 299.5C652 298.3 654.8 298.2 656.1 299.9C657 301.1 656.9 302.9 656.2 304.3C655.5 305.7 654.3 306.8 653.1 307.8C642.2 317.5 630 326.4 622 338.7C614.6 349.9 610.2 363.1 609.5 376.5C608.6 394.8 614.7 413.6 626.2 427.8C631.4 434.2 637.2 439.3 642.8 444.2C646.9 447.8 650.7 451.1 654 454.7C660.9 462.3 666.5 475.4 654.1 481.2C651.8 482.5 649.1 483.1 646.4 483.2Z" stroke="#F5F5F5" stroke-miterlimit="10"/>
<path d="M644.2 467.4C641.8 467.7 638.9 467.3 637.2 467.4C628.9 467.8 620.7 468.3 612.4 468.7C606.2 469 599 470 592.9 468.6C590.8 468.1 588.8 466.4 588.7 464.2C588.6 461.9 591.3 459.6 592.5 457.7C594.4 454.5 596.1 451.2 597.5 447.8C599.9 442 601.4 436 602.6 429.8C603.3 426.1 604.4 416.5 609.3 416C615.8 415.2 616.6 429.4 619.6 433.2C626.2 441.9 634.7 449.6 643.1 456.4C645.1 458 647.1 459.7 647.9 462.1C649.2 465.8 647 467.1 644.2 467.4Z" stroke="#F5F5F5" stroke-miterlimit="10"/>
<path d="M640.5 461.2C640.1 462.2 638.7 462.5 637.5 462.5C630.5 462.8 623.4 463.1 616.4 463.4C610.9 463.6 605.2 465.5 599.5 464.9C595.7 464.5 595.9 463.5 597.2 460.2C598.2 457.7 599.5 455.4 600.6 453C602.4 448.8 603.9 444.4 605.1 440C605.9 437.1 605.8 430.4 609 429C612.7 427.2 615.2 433.3 616.6 435.7C621.9 444.8 629.5 452.5 638.5 458C639.6 458.7 641 459.8 640.5 461.2ZM640.5 461.2C640.5 461.1 640.5 461.1 640.5 461.2Z" stroke="#F5F5F5" stroke-miterlimit="10"/>
<path d="M619.6 455.2C616.8 455.4 609.8 458.5 607.4 456.3C604.7 453.8 607.8 449 609.2 446.7C612.3 441.7 615.7 448.3 618.2 450.9C619 451.7 622.7 455.1 619.6 455.2Z" stroke="#F5F5F5" stroke-miterlimit="10"/>
<path d="M598.5 383.7C594 385.8 594.6 374.8 592.1 370.4C590.5 367.5 583.6 369 585.3 363C586.9 357 587 362.7 587.9 362.4C595.2 360.5 598 349.4 603.8 351C609.6 352.6 599 367.6 598.6 376.3C598.4 378.8 603 381.6 598.5 383.7Z" stroke="#F5F5F5" stroke-miterlimit="10"/>
<path d="M702.5 428.3L702.4 428.4C700.9 429.8 700.5 432.1 700.7 434.1C701.5 441.5 706.6 449.1 709.3 455.9C712.5 463.9 715.3 472.1 717.7 480.3C722.7 497.3 729.3 518.8 726.8 536.7C726.3 540.6 725.8 545.2 728.6 547.9C731.8 550.9 736.9 549.7 740.9 547.7C750.1 543.2 755.3 536.5 761.9 529.1C768.8 521.3 778.6 515.7 786.8 509.4C790.3 506.7 794.2 503 793 498.7C791.9 494.6 786.9 493.3 782.7 492.3C750 484.3 733.4 453.1 711.2 430.8C709.1 428.6 705.6 425.4 702.5 428.3Z" stroke="#F5F5F5" stroke-miterlimit="10"/>
<path d="M732 537.4C731.6 534.8 732.4 531.8 732.4 529.4C732.4 523.8 731.9 518.3 731 512.8C729.3 502.1 726.2 491.7 723.2 481.4L722.5 479C719.4 468.6 715.7 458.6 711.3 448.7C710.9 447.7 710.4 446.5 711 445.6C713.1 442.5 723.1 451.7 724.4 453.4C732 462.5 739.7 471.7 748.7 479.5C758.7 488.2 769 492.6 781.2 497C782.7 497.5 784.1 498.5 784.8 500C785.8 502.2 784.8 505 783 506.7C779.8 509.8 774.7 512 771.1 514.7C766.5 518.1 762 521.7 758.1 526C757.3 526.9 756.6 527.7 755.8 528.6C752 532.9 747.3 539.1 742.2 541.9C739.7 543.3 736.3 543.5 734.1 541.7C732.8 540.3 732.3 538.9 732 537.4Z" stroke="#F5F5F5" stroke-miterlimit="10"/>
<path d="M736.9 519.7C735.5 518.9 734.7 516.6 734.4 515.2C733.6 510.7 736.2 506.3 735.5 501.8C734 492.7 728.4 484.8 725.7 476C725.3 474.7 724.9 473.4 725 472.1C725 470.8 725.5 469.4 726.5 468.5C730.4 465.3 734.1 471.9 735.7 474.4C738.7 479 743.2 482.5 748 485.1C752.4 487.5 757.1 488.7 761.6 490.7C764.7 492.1 765.8 495.4 762.2 497.1C757.8 499.2 754 501 750.4 504.4C748.8 505.9 747.3 507.6 745.9 509.3C744.6 511 743.7 513.4 742.2 514.9C741.4 516.4 739.9 519.9 737.9 520C737.6 519.9 737.2 519.8 736.9 519.7Z" stroke="#F5F5F5" stroke-miterlimit="10"/>
<path d="M71.5 546.3C55.6 557.3 37.2 564.8 18.1 567.6C-20.8 573.4 -49 558.3 -81.6 540.2C-118.2 519.9 -104.6 493 -86.6 461.8C-68 429.5 -63.4 389.9 -71.9 353.8C-80.7 316.5 -116.2 286.1 -97.6 245.5C-84.9 217.8 -49.2 205 -21.1 200.6C-14.7 199.6 -7.50001 199.2 -2.10001 202.9C4.19999 207.2 5.89998 215.6 7.69998 223C11.9 239.6 33 253.5 50.2 250.6C61.2 248.8 71.9 241.7 82.5 244.9C96.6 249.1 100 267.6 110.9 277.4C126 290.9 153.4 286.3 164.6 303.2C172.7 315.4 167.3 331.8 170 346.2C177.4 385 238.1 394.5 245.5 433.2C249.1 451.8 236.3 472.1 217.9 476.9C190.2 484.1 155.8 450 132.2 469.7C121.7 478.5 116.7 492 110 503.9C100.8 520.8 87.4 535.3 71.5 546.3Z" stroke="#F5F5F5" stroke-miterlimit="10"/>
<path d="M1.49996 558.9C-27.5 558.9 -51.4 545.6 -76.8 531.5C-86.6 526.1 -92.2 520.2 -94 513.7C-97.3 501.8 -88.7 485.5 -77.9 466.8C-58.5 433.2 -52.8 391.2 -62.2 351.5C-65.4 337.8 -71.8 325.3 -77.9 313.2C-89.1 291.2 -98.8 272.2 -88.5 249.7C-75.5 221.3 -32.4 212.5 -19.5 210.5C-17 210.1 -15 209.9 -13.3 209.9C-10.8 209.9 -9.00004 210.3 -7.80004 211.1C-5.10004 213 -3.70004 218.5 -2.40004 223.8L-2.00004 225.5C2.99996 244.7 24.8 261 45.6 261C47.7 261 49.9 260.8 51.9 260.5C56.4 259.7 60.6 258.4 64.6 257C69.1 255.5 73.4 254.1 76.9 254.1C78 254.1 78.9 254.2 79.8 254.5C84.5 255.9 87.9 261.6 91.9 268.2C95.2 273.7 99 280 104.4 284.9C113.1 292.7 124.2 295.5 134 298C143.9 300.5 152.4 302.7 156.3 308.7C159.6 313.7 159.5 320.9 159.3 329.2C159.2 335.3 159 341.6 160.3 348.1C164.8 371.5 184.6 385.5 202.1 397.9C217.9 409.1 232.9 419.7 235.8 435.1C238.4 448.5 228.7 463.8 215.5 467.2C213.7 467.7 211.8 467.9 209.7 467.9C201.6 467.9 192.4 464.6 182.6 461.2C172 457.4 161 453.5 150.1 453.5C140.8 453.5 132.7 456.4 125.8 462.1C116.2 470.1 110.8 480.7 105.6 491C104.1 493.9 102.8 496.6 101.3 499.2C92.8 514.4 80.5 527.9 65.7 538.2C51 548.4 34 555.2 16.7 557.8C11.6 558.5 6.49996 558.9 1.49996 558.9Z" stroke="#F5F5F5" stroke-miterlimit="10"/>
<path d="M1.49999 543.4C-18 543.9 -37.7 539.1 -54.6 529.3C-62.4 524.8 -69.9 518.9 -73.8 510.8C-80.1 497.8 -74.4 487 -67.1 476.5C-59.9 466.3 -55 455.2 -51.1 443.2C-41.2 412.7 -40.2 379.4 -47.5 348.2C-51.2 332.7 -57.9 319.4 -64.5 306.6C-76.1 283.9 -81.8 271.3 -74.8 256.1C-69.9 245.3 -57.5 238.2 -48 234.1C-40.4 230.8 -27.4 224.7 -18.8 228.1C-12.8 230.4 -12.7 233.4 -10.6 238.8C-7.30001 247.5 -4.80001 252.6 2.99999 259.4C14.7 269.5 30 276 45.6 276C55.8 276 64.5 268.3 74.7 273.1C83.8 277.4 87.2 287.7 93.3 295C100.7 303.8 109.1 307.1 120.2 308.8C129.2 310.2 139.3 312.6 143.5 320.7C146.2 325.9 145.6 332 145.6 337.9C145.8 371 168.3 392.4 193.4 410.2C201.7 416.1 213.8 423.1 218.9 432.1C222.1 437.7 221.9 445.7 216.9 449.7C211.9 453.6 204.7 452.1 198.5 450.4C170.7 442.5 141.6 429.5 116.2 450.7C99.2 464.9 94.5 485.9 81.5 502.7C67.8 520.3 48.4 533.6 26.9 539.7C18.7 541.9 10.1 543.1 1.49999 543.4Z" stroke="#F5F5F5" stroke-miterlimit="10"/>
<path d="M-1.39999 538.4C-19.4 538.4 -36.9 533.7 -52.1 524.9C-60.8 519.8 -66.5 514.5 -69.3 508.5C-74.1 498.5 -70.6 490.2 -63 479.2C-56.1 469.3 -50.8 458.3 -46.3 444.5C-36.2 413.2 -34.9 379.4 -42.6 346.8C-46.4 330.7 -53.3 317.2 -60 304.1C-74.3 276.1 -79.1 252.8 -45.9 236.4C-37.6 232.3 -26.7 231.7 -19.5 237.6C-17.1 239.6 -15.2 242.1 -13.3 244.6C2.20001 265.6 17.3 280.9 45.7 280.9C50.4 280.9 54.7 279.6 58.5 278.4C61.8 277.4 64.8 276.4 67.7 276.4C69.5 276.4 71.1 276.8 72.7 277.5C77.5 279.8 80.6 284.6 83.8 289.7C85.6 292.5 87.4 295.4 89.6 298C98.8 309 109.5 312 119.6 313.5C127.6 314.8 136.2 316.8 139.2 322.7C140.9 325.9 140.8 330.2 140.8 334.7C140.8 335.7 140.8 336.7 140.8 337.6C141 373.9 166.2 396.6 190.7 413.9C192.2 415 193.8 416.1 195.5 417.2C202.8 422.2 211.1 427.8 214.8 434.2C216.8 437.7 217 443.1 214.1 445.4C212.9 446.3 211.3 446.8 209.1 446.8C206.3 446.8 203 446 200.1 445.2C196.6 444.2 193 443.1 189.5 442.1C176.1 438 162.3 433.8 148.6 433.8C135 433.8 123.5 437.9 113.2 446.5C102.3 455.6 96.2 467.3 90.2 478.5C86.3 485.9 82.7 492.9 77.7 499.2C64.5 516.2 46 528.7 25.6 534.5C17.8 536.7 9.60001 537.9 1.40001 538.2C0.500009 538.4 -0.499994 538.4 -1.39999 538.4Z" stroke="#F5F5F5" stroke-miterlimit="10"/>
<path d="M1.59997 520.1C-12.4 520.2 -26.7 517.1 -39.8 510.5C-44.7 508.1 -49.6 504.8 -51.4 499.7C-52.9 495.4 -51.9 490.6 -49.7 486.6C-46.3 480.4 -31.6 454.3 -29 446.3C-19.7 417.6 -17.4 386.8 -21.8 357C-23.7 344.1 -27.1 331.2 -31 318.7C-34.4 307.7 -43.5 300.4 -48.6 290.2C-53.1 281.2 -54.8 270.3 -50.8 261.1C-46.8 251.9 -36 245.4 -26.4 248.2C-17.2 250.9 -12.1 260.4 -6.20003 267.9C2.99997 279.5 15.7 286.5 29.5 291.1C42.6 295.5 56.5 287.3 69.1 292.5C80.1 297.1 83.7 311.7 94 317.7C102.2 322.5 113 321 120.9 326.2C129.5 331.9 131.8 343.3 134.9 353.1C140.9 372.1 153 389.2 168.9 401.2C172.5 403.9 176.4 406.5 178.6 410.4C180.8 414.3 180.6 420.1 176.8 422.5C170.4 426.6 160.6 418.8 154 417.7C144.6 416.1 134.8 417.1 125.9 420.4C105 428 89.9 449.8 79.9 468.8C76.2 475.9 73 482 68.8 487.3C52.2 508.6 27.2 519.8 1.59997 520.1Z" stroke="#F5F5F5" stroke-miterlimit="10"/>
<path d="M0.799953 505.8C-1.50005 505.9 -3.90005 505.9 -6.30005 505.7C-13.2 505.3 -20.7 503.4 -24.9 497.9C-28.5 493.2 -29 486.7 -27.7 480.9C-26.4 475.1 -23.6 469.8 -21 464.5C5.39995 409.3 1.19995 340.5 -31.7 288.9C-33.8 285.6 -36.1 282.2 -37.2 278.4C-38.3 274.6 -38 270.1 -35.4 267.2C-24 254 -15 280.9 -9.60005 286.5C1.59995 298.3 18.9 306.7 35.2999 306.1C45.9 305.7 57.5 304.7 66.2 310.8C73.5 315.8 77.2 324.9 84.7 329.7C91.6 334.1 100.5 334.2 107.6 338.2C116.7 343.3 119.6 352.5 123.4 361.5C127.7 371.8 134.7 381.1 140.7 390.6C142.4 393.3 144.1 396.4 143 399.4C140.4 406.5 127.4 404.6 121.7 406.2C112.3 408.7 103.7 414.2 96.7 420.9C86.1 431 78.5 443.8 70.8 456.3C54.9 481.7 31.7 504.4 0.799953 505.8Z" stroke="#F5F5F5" stroke-width="2" stroke-miterlimit="10"/>
<path d="M4.89996 497.3C-2.50004 496.3 -6.50004 490.3 -2.40004 480.3C3.69996 465.3 10.1 451.2 13.6 435.2C17.8 415.6 18.8 395.4 17.1 375.5C15.6 358.7 11.5 343.6 6.39996 327.6C5.49996 324.8 4.69995 321.4 6.69995 319.2C8.89996 316.7 13 317.6 16.2 318.7C24.4 321.5 30.5 325.6 39.2 325.4C49.5 325.2 58.6 326 67.2 332.4C73.3 337 78 343.4 84.4 347.5C90.5 351.3 97.8 352.8 104 356.6C114.5 363.1 132.9 384.5 124.1 397.2C120.3 402.7 113.9 405.6 107.8 408.2C98.7 412 88.8 417.3 82.9 425.5C73.6 438.4 67.2 452.9 56.9 465.3C45.9 478.6 32.1 490 15.9 495.8C11.8 497.2 7.99996 497.7 4.89996 497.3Z" stroke="#F5F5F5" stroke-miterlimit="10"/>
<path d="M7.2 492.4C6.6 492.4 6.1 492.4 5.5 492.3C4.1 492.1 2.3 491.6 1.4 490.1C0.399997 488.4 0.699997 485.5 2.1 482.1C3.1 479.5 4.2 477 5.2 474.5C10.4 461.9 15.4 449.9 18.3 436.2C22.5 416.7 23.7 396.1 21.9 375C21.2 367.4 18.7 360.2 16.4 352.9C14.6 347.3 8.6 334 11.3 328.1C14.2 321.9 31.4 330.3 38.4 330.3C38.6 330.3 38.9 330.3 39.1 330.3C40 330.3 40.9 330.3 41.8 330.3C50.3 330.3 57.3 331.3 64 336.3C66.4 338.1 68.7 340.3 71 342.6C74.2 345.7 77.5 349 81.5 351.5C85 353.7 88.7 355.1 92.2 356.6C95.4 357.9 98.4 359.1 101.1 360.7C107.8 364.9 118.7 376.4 120.8 386.4C121.5 389.6 121.1 392.2 119.7 394.3C116.7 398.6 111.3 401.1 105.6 403.6C97.4 407.1 85.6 412.8 78.6 422.6C74.5 428.3 70.9 434.3 67.5 440.1C62.9 447.9 58.5 455.3 52.9 462.1C41 476.4 28 486.2 14.1 491.1C11.7 492 9.3 492.4 7.2 492.4Z" stroke="#F5F5F5" stroke-miterlimit="10"/>
<path d="M23.9999 468.8C18.2999 465.8 30.8999 449.4 33.0999 439.4C37.5999 418.5 38.8999 396.4 36.8999 373.9C36.2999 367 34.3999 359 30.9999 353C29.5999 350.6 28.7999 347.3 30.7999 345.4C32.4999 343.7 35.2999 344.2 37.4999 344.8C43.4999 346.6 49.5999 344.1 55.0999 348.2C56.6999 349.4 58.4999 351.2 60.5999 353.2C64.1999 356.7 68.1999 360.7 73.6999 364.2C78.3999 367.1 82.8999 368.9 86.8999 370.5C89.5999 371.6 91.8999 372.5 93.3999 373.4C97.2999 375.8 105.4 380.9 103.2 386.5C101.2 391.7 89.6999 394.5 85.0999 397.3C77.9999 401.6 71.4999 406.9 66.5999 413.7C62.0999 419.9 58.3999 426.2 54.7999 432.3C50.2999 439.9 46.3999 446.5 41.4999 452.4C36.4999 458.4 29.6999 471.8 23.9999 468.8Z" stroke="#F5F5F5" stroke-miterlimit="10"/>
<path d="M48.6 414.8C46.3 414.6 45.2 412.8 44.5 410.6C43.1 405.5 44.7 399.7 45.4 394.6C46.4 387.5 49 380.6 48.5 373.4C48.3 369.7 47 367 45.2 364C43.5 361.2 43 359.7 46.4 358C54 354.2 57.6 368.8 66 374.1C69.4 376.2 85.8 375.2 84 382.7C83.8 383.5 83.2 384.1 82.6 384.6C80.1 386.6 76.9 387.4 74.2 389.2C71.3 391.1 68.4 393.3 65.7 395.6C62.5 398.3 59.4 401.2 56.6 404.3C55.2 405.8 53.6 407.4 52.6 409.1C51 411.8 53.5 414.8 49.1 414.8C49 414.9 48.8 414.9 48.6 414.8Z" stroke="#F5F5F5" stroke-miterlimit="10"/>
<path d="M310.8 86C304.3 74.3 290 65.8 290.2 52.4C290.3 44.8 295.3 38.3 298.7 31.4C312.4 3.89996 296.4 -28.9 269.9 -42.6C255.5 -50 239.9 -46.2 225.9 -52.9C210.4 -60.3 200.7 -76.2 188.4 -87.5C179.2 -95.9 168.2 -102.2 156.4 -106C132.3 -113.7 84.5999 -107.1 81.7999 -74.3C80.8999 -64.2 85.7999 -54.1 93.1999 -47.2C111 -30.9 152.8 -25.4 148 8.29996C146.9 15.9 142.4 23.2 143.6 30.8C145.6 43.1 160.6 47.9 169 57.1C176.9 65.8 178.8 78.5 178.1 90.2C177.5 101.9 174.8 113.6 175.3 125.3C175.9 140.7 182.5 156.4 195.1 165.4C207.6 174.4 226.2 175.4 238.1 165.6C250 155.8 254.7 137 269.5 132.7C275.3 131 281.6 132 287.6 131.3C307.5 128.8 320.5 103.5 310.8 86Z" stroke="#F5F5F5" stroke-miterlimit="10"/>
<path d="M217.5 162.6C211.6 162.6 205.6 160.7 200.9 157.3C191.7 150.6 185.8 138.5 185.3 124.9C185.1 118.6 185.8 112.1 186.7 105.3C187.3 100.6 187.9 95.7 188.1 90.7C189 73.4 185.1 59.8 176.4 50.3C172.7 46.3 168.3 43.1 164.3 40.3C157.9 35.8 154 32.7 153.4 29.1C153 26.7 154 23.5 155.2 19.8C156.2 16.8 157.2 13.4 157.8 9.69997C162.1 -20.6 137.1 -33.5 118.9 -42.9C111.4 -46.8 104.4 -50.4 99.8999 -54.5C94.2999 -59.7 91.0999 -66.9 91.5999 -73.4C92.2999 -81.4 96.6999 -87.5 105.2 -92.1C113.1 -96.4 124.2 -98.9 135.5 -98.9C142.1 -98.9 148.4 -98 153.3 -96.5C163.7 -93.2 173.5 -87.5 181.6 -80.1C185.4 -76.7 189 -72.6 192.8 -68.4C201 -59.2 209.5 -49.7 221.6 -43.9C229.9 -39.9 238.5 -39 246 -38.2C253 -37.4 259.6 -36.7 265.3 -33.7C286.3 -22.8 301.1 4.09998 289.7 26.9C289 28.3 288.1 29.8 287.3 31.4C284 37.2 280.3 43.9 280.2 52.2C280 64.6 287.9 73.5 294.2 80.6C297.3 84.1 300.2 87.4 302 90.7C304.9 96 304.7 103.1 301.3 109.6C298 116.1 292.4 120.5 286.3 121.2C284.5 121.4 282.5 121.4 280.3 121.5C276.2 121.5 271.5 121.6 266.7 123C254.4 126.6 247.7 136.6 241.7 145.3C238.4 150.2 235.3 154.8 231.7 157.8C228.1 160.9 223 162.6 217.5 162.6Z" stroke="#F5F5F5" stroke-miterlimit="10"/>
<path d="M207.5 147.4C206.4 147.6 205.2 147.6 204.1 147.4C194.8 145.6 190.7 132.5 190.4 124.4C190.2 119.3 190.9 113.7 191.7 107.2C192.3 102.2 192.9 97.1 193.2 91.5C193.8 79.5 192.5 67.1 187.7 56C182.4 43.7 172.3 37.5 163.8 28.2C161.8 26 160.3 23.2 160.3 20.3C160.3 16 163.1 12.5 163.6 8.29996C164.1 3.89996 163.4 -1.40005 162.7 -5.80005C160.9 -16.9 155.4 -26.9 147.6 -34.9C135.2 -47.6 118.6 -53.9 103.7 -63C100.5 -65 97 -67.6 96.8 -71.3C96.7 -74 98.5 -76.6 100.8 -78.1C107.5 -82.6 117.7 -83.8 125.5 -83.8C130.5 -83.8 135.3 -83.2 138.7 -82.1C147.1 -79.4 155 -74.9 161.5 -68.9C164.7 -66 168 -62.2 171.6 -58.3C180.4 -48.5 190.3 -37.3 205.1 -30.2C215.7 -25.1 226 -24 234.3 -23.1C240.1 -22.5 245.1 -21.9 248.4 -20.2C262.7 -12.8 273.6 5.69996 266.3 20.4C265.8 21.5 265 22.8 264.2 24.2C260.4 30.9 255.3 40 255.2 52.2C255.1 61.1 257.8 69.2 262.2 76.8C263.7 79.4 265.1 82.4 267.1 84.5C269.9 87.5 273.7 88.9 276 92.5C278.5 96.3 278.7 102 275.3 105C272.3 107.6 268 107.3 264 107.4C248.1 107.8 232.6 116.5 224.1 129.9C221.5 133.9 219.6 138.3 216.4 141.9C214.2 144.6 210.9 146.8 207.5 147.4Z" stroke="#F5F5F5" stroke-width="2" stroke-miterlimit="10"/>
<path d="M206.1 130.2C205.3 130.2 204.5 130 203.8 129.8C197.1 127.1 197.7 118.1 197.9 115.1C198.2 110.6 199.5 106.5 200.8 102.5C201.9 98.8999 203 95.4999 203.2 92.1999C204 77.0999 201.9 63.6999 196.9 52.1999C194.4 46.3999 190.7 40.7999 186 35.4999C185 34.3999 183.5 33.0999 181.8 31.7999C178.5 29.0999 174.7 25.9999 173 21.7999C171.2 17.4999 172.1 13.4999 172.8 10.2999C173.1 9.09994 173.3 8.09994 173.4 7.09994C173.8 2.99994 173.6 -1.60006 172.7 -7.20006C171.1 -16.9001 164 -23.9001 155.7 -32.0001C153.9 -33.8001 152 -35.6001 150.2 -37.5001C150.1 -37.6001 139.3 -50.2001 142.1 -58.3001C143.1 -61.2001 145.5 -63.0001 148.7 -63.4001C149.1 -63.4001 149.4 -63.5001 149.8 -63.5001C152.7 -63.5001 155 -62.1001 156.4 -61.3001C157.3 -60.8001 158.1 -60.3001 159 -59.8001C163.3 -57.3001 167.7 -54.7001 171.3 -50.5001C173.2 -48.3001 174.8 -46.1001 176.4 -43.8001C177.5 -42.3001 178.6 -40.8001 179.7 -39.4001C186.9 -30.2001 193.7 -24.4001 201 -21.0001C213.2 -15.2001 224.9 -13.9001 233.5 -13.0001C243.2 -11.9001 255.3 -7.90006 257.6 5.59994C259.2 14.9999 254.5 23.4999 250.8 30.2999C247 37.2999 245.6 42.9999 245.5 52.1999C245.4 59.2999 247 66.3999 250.5 73.9999C250.8 74.5999 251.6 75.9999 252.5 77.2999C255.9 82.7999 260.2 89.6999 258.6 95.2999C258 97.5999 256.4 99.4999 254.2 100.6C251.7 101.9 249.2 102 247 102H245.8H245.3C239.6 102.1 233.2 105.4 225.8 112.3C225.2 112.8 223.5 115.1 222.2 116.8C217.2 123.3 213.4 128 209.8 129.7C208.3 129.9 207.2 130.2 206.1 130.2Z" stroke="#F5F5F5" stroke-miterlimit="10"/>
<path d="M207.2 124.9C206.6 125.2 206 125.3 205.6 125.1C202.4 123.8 202.7 117.9 202.8 115.3C203.3 107.4 207.7 100.1 208.1 92.2999C208.9 76.3999 206.7 62.1999 201.4 49.9999C198.5 43.2999 194.4 37.2999 189.6 31.8999C186.1 27.9999 179.4 24.3999 177.5 19.6999C175.8 15.5999 177.9 11.4999 178.3 7.29994C178.8 2.19994 178.3 -3.20006 177.5 -8.30006C175.3 -22.0001 163.9 -30.7001 153.6 -41.3001C151.7 -43.2001 141.7 -57.8001 149.2 -58.8001C150.8 -59.0001 152.3 -58.1001 153.7 -57.3001C158.7 -54.3001 163.7 -51.8001 167.4 -47.5001C170.3 -44.1001 172.8 -40.2001 175.7 -36.6001C182 -28.6001 189.4 -21.1001 198.8 -16.8001C211.7 -10.6001 223.9 -9.30006 232.8 -8.30006C241.8 -7.30006 250.7 -4.00006 252.5 6.19994C253.8 13.6999 249.9 20.9999 246.2 27.6999C241.7 35.9999 240.4 42.6999 240.2 51.8999C240.1 60.2999 242.2 68.1999 245.6 75.7999C247.5 79.8999 257.9 92.6999 251.6 95.8999C249.6 96.8999 247.1 96.6999 244.8 96.6999C236.1 96.7999 228.1 102.6 222 108.3C219.5 110.6 211.5 122.8 207.2 124.9Z" stroke="#F5F5F5" stroke-miterlimit="10"/>
<path d="M215.6 98.4C215.2 98.1 214.9 97.6 214.7 96.8C214.3 95.4 215 94 215.6 92.7C219.9 83.8 218.5 74.7 217.3 65.3C216.2 56.9 214.1 48.6 210.7 40.9C208.2 35.1 204.8 29.7 200.9 24.7C197.2 20.1 190.9 16.8 188.2 11.6C186 7.39997 188 3.49997 188.4 -0.700029C189 -6.20003 188.3 -12.2 185.7 -17.2C185 -18.6 184 -20.1 184.4 -21.7C184.6 -22.8 185.6 -23.8 186.7 -24.1C190.9 -25 196.7 -16.5 200.1 -14.4C210.3 -8.30003 222.2 -7.60003 233.8 -6.30003C245.3 -5.00003 246.1 -0.600028 246.5 1.59997C247.3 6.49997 244 12.5 241.1 17.9C235.5 28.1 234.3 36.5 234.2 45.9C234.1 52.1 235.1 58.1 236.8 64.1C238.1 68.8 246.1 77.7 245.3 82.1C244.9 84.3 243 86 241 86.8C238.1 87.9 235 87.5 232.1 88.6C228.5 90 224.9 92 222.1 94.7C220.8 95.6 217.5 100.1 215.6 98.4Z" stroke="#F5F5F5" stroke-miterlimit="10"/>
<path d="M228.7 81.3C227.9 80.7 227.2 79.8 227 78.6C224.6 64.9 224.6 51.7 218.9 38.5C216.4 32.8 213.2 27.3 209.4 22.4C207.5 19.9 205.4 17.6 203.2 15.4C198.9 11.2 195.6 8.49996 195.8 1.69996C195.9 -0.700041 197.2 -3.30004 199.5 -4.10004C201.1 -4.70004 202.9 -4.30004 204.5 -3.90004C211.8 -2.20004 219.2 -0.400041 226.5 1.29996C229.6 1.99996 232.7 2.29996 235.7 2.79996C238.4 3.19996 240.5 3.89996 238.7 7.39996C232.9 19 228 29.8 227.3 42.9C226.9 50.7 227.7 58.6 229.9 66.1C230.9 69.6 234 74.1 234.3 77.6C234.6 80.6 231.7 83.3 228.7 81.3Z" stroke="#F5F5F5" stroke-miterlimit="10"/>
<path d="M713.8 -109.4C706.8 -121.4 695.6 -130.3 683.9 -137.7C622.9 -176.5 545.8 -181.5 474.3 -171.1C459.3 -168.9 444 -165.9 431.4 -157.5C416.2 -147.3 406.6 -129.2 406.6 -110.8C406.7 -77.7 445.9 -60.1 444.7 -29.1C444 -9.60004 433.4 8.69997 439.1 28.5C442.1 39.2 451.6 48.2 451.2 59.4C450.8 72.5 437.4 81.2 432.2 93.2C421 119.3 450.7 151.6 436.2 176C431.7 183.5 424 188.2 418.1 194.6C412.2 201 408.3 211.1 413.3 218.2C422.2 230.9 443 218 457.6 223.2C468.4 227.1 473.2 240.2 483.3 245.8C494.9 252.3 510.5 246.5 518.1 235.6C525.7 224.8 526.8 210.5 525 197.4C523.5 186.4 520 175.4 513.2 166.6C502.4 152.7 482.7 142.6 483 124.9C483.2 108 502.8 95.7 502.4 78.8C502.1 62.3 482.9 50.4 483.5 34C483.8 27.6 487.2 21.6 491.7 17C511.2 -2.60003 544.4 4.49998 569 17.1C593.6 29.7 618.5 47 645.9 43.9C670.7 41.1 692.1 19.3 694.4 -5.50003C695.7 -19.3 691.9 -34 698 -46.4C702.4 -55.2 711.1 -61.2 715.9 -69.8C722.7 -81.8 720.8 -97.4 713.8 -109.4Z" stroke="#F5F5F5" stroke-miterlimit="10"/>
<path d="M496.8 238.6C494.6 238.6 492.7 238.1 491 237.2C488 235.5 485.2 232.2 482.2 228.7C477.5 223.2 472.2 216.9 463.8 213.9C460.2 212.6 456.3 212 451.7 212C447.2 212 442.9 212.6 438.7 213.2C435.3 213.7 432 214.1 429.3 214.1C425.3 214.1 424.7 213.2 424.3 212.6C422.9 210.6 424.8 205.3 428.3 201.5C430.1 199.5 432.3 197.6 434.6 195.6C439.1 191.7 444.1 187.3 447.7 181.2C457.5 164.8 452.2 146.9 447.5 131C443.8 118.4 440.3 106.5 444.3 97.2C445.8 93.6 448.7 90 451.7 86.2C457.3 79.1 463.7 71 464.1 59.8C464.4 50.3 460.2 42.7 456.4 36C454.4 32.4 452.5 29 451.6 25.8C448.8 16 451.1 6.19995 453.7 -5.00005C455.5 -12.5 457.3 -20.4 457.6 -28.7C458.3 -47.8 447 -62.3 437 -75.2C428 -86.8 419.5 -97.7 419.5 -110.9C419.5 -125.8 427.5 -140.9 439.9 -149.2C451.1 -156.7 465.8 -159.3 478.7 -161.2C499.7 -164.3 520.3 -165.8 539.9 -165.8C595.7 -165.8 643.3 -153.5 681.5 -129.3C689.8 -124 701.5 -115.7 708.1 -104.4C713.9 -94.4 714.7 -82.7 710.1 -74.7C708.4 -71.6 705.7 -68.7 702.8 -65.5C699 -61.4 694.8 -56.7 691.9 -50.8C686.8 -40.4 687.1 -29.2 687.4 -19.4C687.5 -14.8 687.7 -10.5 687.3 -6.40004C685.4 13.6 667.6 31.8 647.6 34C645.8 34.2 644 34.3 642.2 34.3C624.5 34.3 607.4 25 589.3 15.2C585.1 12.9 580.7 10.5 576.3 8.29996C559.6 -0.300043 542 -5.10005 526.9 -5.10005C511 -5.10005 497.3 0.0999546 487.5 9.99995C480.7 16.9 476.7 25.1999 476.4 33.5999C475.9 45.2999 482.1 54.4 487.5 62.5C491.5 68.4 495.2 73.9999 495.3 79.0999C495.4 84.4999 491.7 90.0999 487.3 96.5999C482 104.5 476 113.5 475.9 124.8C475.7 141.3 487.2 152 497.3 161.5C501.4 165.4 505.3 169 508.2 172.8C513.2 179.3 516.5 188 518 198.8C519.3 207.9 519.4 220.6 512.9 229.9C509.2 235 502.6 238.6 496.8 238.6Z" stroke="#F5F5F5" stroke-miterlimit="10"/>
<path d="M495.1 234.4C492.8 233.7 491.1 231.2 489.2 229C485.1 224.2 481 219.5 475.9 215.8C468.7 210.5 462.5 209.4 453.8 208.2C451.7 207.9 449.4 207.5 448 205.9C446.3 203.9 446.6 200.8 448 198.6C450.8 194.3 454.1 192.9 456.1 187.8C458.6 181.6 459.8 175.2 459.6 168.5C459.2 154.9 454.1 141.9 450.3 129C447.2 118.3 448.2 107.2 450.6 101.6C451.6 99.3 454.2 96 456.8 92.7C461 87.4 462.5 79.8 466.2 74C469.2 69.3 475 65.8 478.7 71.7C482.6 77.9 477.3 83.9 474 88.8C467.7 98.3 465.1 110 465 126C464.8 140.6 469.5 157.4 480.1 168.1C489.3 177.3 498.7 186.8 503.1 199.3C506 207.6 509.3 227.4 500.1 233.2C498.1 234.6 496.5 234.8 495.1 234.4Z" stroke="#F5F5F5" stroke-miterlimit="10"/>
<path d="M459.2 20.1C452.6 20.7 458.7 -0.700046 459.6 -4.50005C461.4 -12.1 463.4 -20.6 463.7 -29.9C464.4 -47.9 455.7 -65.7 444.2 -79.1C433.2 -92 422.7 -104.6 429.4 -123C436.7 -143.2 455.9 -145.7 474.2 -148.4C494.2 -151.3 513.9 -152.8 532.5 -152.8C580.5 -152.8 627.3 -142.6 668.2 -116.6C676.1 -111.6 684.1 -105.6 687.9 -97C695.5 -79.7 677.5 -70.5 670.8 -56.9C664.5 -44.1 664.9 -31.0001 665.2 -20.6001C665.3 -16.5001 665.4 -12.6 665.1 -9.40004C663.8 4.69996 650.7 18 636.6 19.6C635.3 19.7 634 19.8 632.6 19.8C618.3 19.8 602.8 11.4 586.4 2.49995C582.2 0.199954 577.8 -2.20004 573.4 -4.40004C555.3 -13.7 536.2 -18.8 519.5 -18.8C507.2 -18.8 494 -15.8 483.4 -8.90004C477.9 -5.30004 473 -0.600052 469.3 4.89995C466.7 8.79995 464.5 18.9 459.4 20.1C459.5 20.1 459.3 20.1 459.2 20.1Z" stroke="#F5F5F5" stroke-miterlimit="10"/>
<path d="M495.6 219.2C490.5 218.5 486.1 210.8 481.9 207.7C477 204.1 463.6 204 463 196.2C462.8 193.9 466.6 185.1 467.4 182.2C468.7 177.5 470.1 173.3 475.9 176.2C484.3 180.4 490.7 194.4 493.6 202.7C495.4 207.8 497.4 214 495.6 219.2Z" stroke="#F5F5F5" stroke-miterlimit="10"/>
<path d="M632.3 4.20001C628.2 4.50001 624.1 4.00002 620.2 2.80002C609.8 -0.299982 601 -6.99998 591.7 -12.5C573.9 -23.2 553.7 -29.9 533 -32.1C523.7 -33.1 511.4 -34.8 502.4 -31.5C494.9 -28.7 487.8 -20.6 479.3 -21C471.7 -21.3 473.9 -28.2 474.2 -34.8C475.2 -61.2 460.5 -80.1 449.7 -93.9C443.3 -102.2 437.2 -110 437.2 -115.5C437.1 -137.4 461.3 -140 477.8 -143.1C497.5 -146.8 517.7 -148.4 537.8 -147.8C578.4 -146.6 618.9 -136.8 655.2 -118.5C662.5 -114.8 670 -110.6 674.8 -103.7C680.7 -95.3 677.9 -90.9 672.3 -83.5C661.7 -69.5 655.1 -53 654.8 -35.3C654.6 -24.6 656.3 -12.8 649.8 -4.29999C645.7 1.10001 639.2 3.80001 632.3 4.20001Z" stroke="#F5F5F5" stroke-miterlimit="10"/>
<path d="M559.7 275.8C545 275.8 536 265.9 535 256.6C534.5 252 535.7 247.7 536.6 244.9C539.2 237 543.5 229.5 547.7 222.3C554.8 210 561.5 198.4 558.6 186.5C556.3 177.2 548.7 170.1 540.6 162.7C538.8 161 536.9 159.3 535 157.5C520.7 143.6 515.7 128 521.7 115.7C523.5 111.9 526.2 108.9 528.7 106C531.8 102.4 534.6 99.3 535 95.7C535.3 92.8 534.1 89.6 532.8 86.2C532.2 84.8 531.7 83.3 531.2 81.7C527.1 68.9 530.4 54.8 539.2 46.6C543.1 43 547.8 41.1 553.2 41.1C563.8 41.1 575.1 48.2 586 55C593.4 59.6 600.4 64 606 65.4C609.2 66.2 612.6 67 615.8 67.7C627.9 70.5 640.5 73.4 651.8 79.5C662.4 85.3 673.9 97.6 681.6 111.7C696 137.9 694.2 162.2 676.9 175.1C666.5 182.9 653.1 182.9 641.2 183C639.9 183 638.7 183 637.4 183C622.2 183.2 612.4 186.9 608.1 194.1C606.1 197.5 605.3 201.9 604.5 206.4L604.4 207.1C601.7 222.1 598.5 234.1 594.3 244.6C588.1 260 580 269.6 569.4 273.9C566.4 275.2 563.1 275.8 559.7 275.8Z" stroke="#F5F5F5" stroke-miterlimit="10"/>
<path d="M676.2 116.1C668.8 102.7 658.1 91.2 648.4 85.9C634.7 78.5 618.9 76 603.7 72.2C585.3 67.6 557.7 37.2 541.6 52.2C533.7 59.6 531.6 71.9 534.9 82.2C536.6 87.5 539.6 92.7 539 98.3C538 106.9 529 112.1 525.2 119.9C519.3 132.1 527.8 146.4 537.5 155.9C547.2 165.4 559.2 174.1 562.4 187.3C567.6 208.8 547.2 227.4 540.3 248.5C539.3 251.6 538.6 254.9 538.9 258.1C540.1 269.9 555.5 275.8 566.5 271.3C577.5 266.8 584.2 255.8 588.6 244.8C593.3 233.1 596.2 220.7 598.5 208.3C599.4 203.2 600.2 198 602.9 193.6C609.3 182.7 623.8 180.2 636.4 180C649 179.9 662.8 180.6 672.9 173.1C690.8 159.8 687.2 136 676.2 116.1Z" stroke="#F5F5F5" stroke-miterlimit="10"/>
<path d="M559.7 260.8C555.4 260.8 550.3 258.4 549.9 255C549.8 253.7 550.1 251.9 550.9 249.6C553 243.1 556.8 236.7 560.7 229.8C568.6 216.2 577.6 200.7 573.2 182.9C569.9 169.2 559.7 159.8 550.8 151.6C549 149.9 547.2 148.3 545.5 146.7C538.6 139.9 531.7 129.5 535.2 122.2C536.1 120.3 538 118.1 540 115.8C544 111.2 548.9 105.6 549.9 97.4C550.6 90.9 548.5 85.3 546.8 80.8C546.3 79.5 545.8 78.2999 545.5 77.1999C543.2 69.9999 544.8 61.8999 549.5 57.5999C550.6 56.5999 551.7 56.2 553.3 56.2C559.6 56.2 569.4 62.4 578.2 67.8C586.6 73.1 594.6 78 602.4 80C605.8 80.8 609.2 81.6 612.5 82.4C624.2 85.1 635.2 87.6 644.8 92.8C652.9 97.2 662.3 107.5 668.6 119C673.7 128.2 676.5 137.5 676.5 145.2C676.5 153.1 673.8 158.9 668.1 163.2C661.6 168 651.8 168.1 641.3 168.1C640 168.1 638.7 168.1 637.4 168.1C616.6 168.3 602.5 174.6 595.4 186.6C592 192.4 590.9 198.5 589.9 203.9L589.8 204.6C587.3 218.6 584.3 229.6 580.5 239.2C576 250.5 570.4 257.6 563.9 260.2C562.6 260.6 561.2 260.8 559.7 260.8Z" stroke="#F5F5F5" stroke-miterlimit="10"/>
<path d="M586.6 165C577 162.7 575 150.5 568.6 143.9C563.1 138.3 552.8 133.7 551.5 125.3C550 115.3 562.3 105.6 562.2 93.9C562.2 88 563.6 81 569 78.9C577 75.9 590.4 88.4 598.5 90.4C602 91.3 605.5 92.1 608.8 92.8C620 95.4 629.5 97.6 637.3 101.8C647.4 107.3 666.6 130.6 659.4 142.7C656.6 147.4 651 149.9 645.5 150.3C633.2 151.2 625.4 149.1 613 153.6C604.9 156.5 597.1 166.4 587.9 165.2C587.6 165.2 587.1 165.1 586.6 165Z" stroke="#F5F5F5" stroke-miterlimit="10"/>
<path d="M589.7 149.4C584.8 149.1 583.7 143.8 581.7 140C579 134.9 575.1 130.3 570.1 127.3C566.7 125.3 563 122.5 562.8 118.5C562.7 116.7 563.3 114.9 564 113.2C566.7 105.9 569.4 98.6 572.1 91.3C575.2 83 581.1 86.3 586.6 89.8C594.9 95.2 604.3 97.2 613.8 99.3C628.2 102.6 641.4 108.8 649 122.2C650.9 125.5 651.2 130 648.8 132.9C645.3 137.3 638.6 136.2 633 135.6C622 134.5 610.6 137.5 601.5 143.8C598.3 146 595.1 148.8 591.2 149.2C590.6 149.4 590.1 149.4 589.7 149.4Z" stroke="#F5F5F5" stroke-miterlimit="10"/>
<path d="M594.3 128C589.6 126.8 585.9 123 582.5 119.4C579.6 116.3 576.6 113 575.2 108.9C569.9 93.2999 585.7 97.0999 594.2 99.2999C603 101.6 612.2 103.4 620.5 107.3C622.8 108.4 629.5 111 628.7 114.3C628 117.3 612.1 123 609.1 124.5C604.9 126.7 600.3 128.9 595.6 128.2C595.2 128.2 594.7 128.1 594.3 128Z" stroke="#F5F5F5" stroke-miterlimit="10"/>
<path d="M158.3 139C158.1 138.7 157.9 138.4 157.7 138C150.5 126.5 147 116.2 146.4 102.4C145.7 86.9 146.2 70.1 137 57.6C129.3 47.1 115.8 41.5 109.7 30C104.5 20.3 105.7 8.49997 105.7 -2.50003C105.6 -24.6 89.6 -44.1 67 -47.3C54.2 -49.1 29.9 -44.6 18 -38.2C-0.700047 -28.2 -2.50005 -5.80004 -5.90005 12.7C-12.4 47.8 -52.5 63.6 -52.5 100.4C-52.7 119.1 -44.3 137.7 -30.2 150C-24.2 155.2 -17.1 159.4 -9.30005 161C12.2 165.3 34.9 149.4 55.5 157C66.3 161 73.9999 170.9 78.0999 181.7C82.2999 192.9 80.7 205.4 88 214.6C92.7 220.5 103.1 225.8 109.2 230.5C115.7 235.4 141.3 258.9 150.7 252.3C159.5 246.1 156.6 223.8 158 214.1C161.7 187.6 173.2 162.1 158.3 139Z" stroke="#F5F5F5" stroke-miterlimit="10"/>
<path d="M138.1 229.1C125.5 231 105.2 211.4 100.5 201.4C95.7999 191.5 93.5999 180.5 88.5999 170.8C80.9999 156.1 66.9999 144.8 50.9999 140.6C25.5999 133.9 1.29993 157.7 -20.4001 138.6C-31.2001 129.1 -37.6001 114.9 -37.5001 100.5V100.4C-37.5001 86.1 -28.4001 75.3 -17.8001 62.8C-5.00007 47.6 5.49993 32 9.09993 12.2C10.6999 3.29999 11.8999 -5.90001 15.9999 -14C23.9999 -29.7 44.4999 -32.7 60.5999 -32.7C62.6999 -32.7 64.0999 -32.6 64.9999 -32.5C100.9 -27.5 84.0999 12.7 94.7999 35.1C101.4 48.8 117.5 55.7 125.3 68.7C139.3 92.3 129.5 121.3 145 146C145.2 146.4 145.5 146.7 145.7 147.1C154.3 160.5 154 180.3 152.4 195.5C151.5 203.8 150.3 213.3 146.6 220.9C144.1 226.3 141.2 228.7 138.1 229.1Z" stroke="#F5F5F5" stroke-miterlimit="10"/>
<path d="M131.5 208.6C126.1 210.5 119.3 205.9 114.1 194.9C112.3 191 110.8 186.6 109.2 182C107.2 176.1 105.1 170 102 163.9C92.5999 145.5 74.9999 131.3 54.8999 126C50.5999 124.9 45.9999 124.3 41.1999 124.3C32.0999 124.3 23.5999 126.4 16.0999 128.2C10.0999 129.7 4.49992 131.1 -0.200077 131.1C-4.40008 131.1 -7.40008 130 -10.5001 127.3C-18.1001 120.7 -22.6001 110.7 -22.5001 100.6V100.4C-22.5001 92 -16.7001 84.7 -6.30008 72.5C3.59992 60.8 12.6999 48.1 18.3999 33.8C24.2999 19.2 21.2999 0.399984 33.7999 -10.7C40.9999 -17.2 58.5999 -22.5 67.6999 -16.5C75.6999 -11.2 74.8999 -0.200015 75.2999 8.59999C75.7999 19.2 76.2999 31.2 81.2999 41.6C86.0999 51.7 93.9999 58.5 100.9 64.4C105.6 68.5 110.1 72.3 112.5 76.4C117.6 85 118.6 95.3 119.7 107.3C121 121.8 122.6 138.3 132.4 154C132.6 154.4 132.9 154.8 133.2 155.2C139.9 165.6 141.9 181.7 140 193.7C138.6 202.3 135.4 207.2 131.5 208.6Z" stroke="#F5F5F5" stroke-miterlimit="10"/>
<path d="M129 204.1C126.5 204.1 122.3 200.6 118.6 192.9C116.9 189.3 115.4 185 113.9 180.6C111.8 174.5 109.7 168.2 106.4 161.8C96.2999 142.1 77.4999 127 56.0999 121.4C51.3999 120.2 46.2999 119.5 41.1999 119.5C31.4999 119.5 22.5999 121.7 14.8999 123.6C9.19993 125 3.79992 126.3 -0.200075 126.3C-3.20008 126.3 -5.00008 125.6 -7.20008 123.7C-13.7001 118 -17.6001 109.4 -17.5001 100.8V100.5C-17.5001 93.8 -12.1001 87.1 -2.50008 75.7C9.99992 60.8 17.7999 48.5 22.9999 35.6C25.2999 29.8 26.3999 23.6 27.2999 17.6C28.9999 7.99996 30.3999 -1.10004 37.0999 -7.00004C40.9999 -10.5 49.6999 -14.1 57.3999 -14.1C60.4999 -14.1 63.1999 -13.5 64.9999 -12.3C69.4999 -9.30004 69.9999 -3.40003 70.1999 5.29996C70.1999 6.49996 70.2999 7.69996 70.2999 8.89996C70.7999 20 71.2999 32.5 76.7999 43.8C82.0999 54.8 90.2999 62 97.5999 68.3C102 72.1 106.2 75.7 108.2 79.1C112.7 86.7 113.6 96.5 114.7 107.9C116.1 123 117.7 140.1 128.2 156.8C128.4 157.2 128.7 157.6 129 158.1C134.5 166.6 137 181 135.1 193.1C134 200.2 131.6 203.4 129.9 204C129.5 204 129.3 204.1 129 204.1Z" stroke="#F5F5F5" stroke-miterlimit="10"/>
<path d="M58.7 111.6C53.1 110.1 47.2 109.4 41.2 109.4C35.2 109.4 28.8 109.9 22.9 111.2C17.8 112.4 12.9 115.1 7.59997 115.7C2.69997 116.2 -2.70003 114.7 -5.60003 110.6C-8.00003 107.2 -8.10003 102.5 -6.80003 98.5C-4.60003 92.2 0.799971 87.1 4.99997 82.1C18.2 66.4 26.6 53.2 32.2 39.3C34.9 32.5 36.1 25.4 37.1 19.2C38.6 11 39.7 3.99995 43.7 0.399954C47.2 -2.80005 54.4 -6.50005 58.5 -2.30005C62.7 1.99995 60.8 10.1 60.7 15.5C60.7 22.9 61.8 30.3 63.9 37.3C66.9 47.2 72 56.5 78.7 64.3C84.6 71.2 94.8 76.3 99.5 84.1C102.9 89.7 103.7 98.5 104.6 108.7C106.1 124.1 82.8 117.9 58.7 111.6Z" stroke="#F5F5F5" stroke-miterlimit="10"/>
<path d="M92.2999 107.1C92.0999 107.2 91.8999 107.4 91.5999 107.5C89.6999 108.3 87.4999 107.9 85.4999 107.4C77.4999 105.6 69.3999 104.1 61.4999 102L61.0999 101.9C45.5999 97.9 29.0999 98.4 14.0999 104.2C12.2999 104.9 10.3999 105.7 8.39991 105.8C6.39991 105.9 4.29991 104.9 3.49991 103.1C2.49991 100.7 4.29991 98 5.89991 96C13.3999 86.9 21.4999 78.1 28.3999 68.6C33.2999 61.9 39.2999 51.3 41.2999 43.2C43.8999 36.7 42.8999 30 43.5999 23.3C43.9999 19.4 45.1999 15.5 47.1999 12.1C47.6999 11.3 49.5999 7.79999 50.6999 7.79999C53.9999 7.79999 53.3999 18.6 53.2999 20.7C52.9999 27.3 52.1999 33.9 54.1999 40.3C57.5999 51.5 63.3999 62.1 70.9999 70.9C74.0999 74.6 77.8999 77.5 81.3999 80.4C87.8999 85.6 93.6999 92.1 94.6999 100.7C95.1999 103 94.2999 105.8 92.2999 107.1Z" stroke="#F5F5F5" stroke-miterlimit="10"/>
<path d="M129.1 174.9C127.8 171.9 125.7 169.4 124.2 166.5C121.1 160.8 120.2 154.2 118.1 148C116.7 144 114.2 142.8 111.3 140.2C110.8 139.8 110.3 139.3 109.7 139.1C109.1 138.9 108.3 139.1 108 139.6C107.7 140.1 108 140.8 108.2 141.3C109.2 143.6 110.1 145.9 110.9 148.3C114.9 161.4 115.1 175.8 122.2 187.5C123.4 189.4 125.6 191.4 127.5 190.3C128.3 189.9 128.7 189.1 129.1 188.3C131 184.3 131 179.2 129.1 174.9Z" stroke="#F5F5F5" stroke-miterlimit="10"/>
<path d="M364.9 2.49994C363.8 -4.90006 358.4 -10.9001 352.9 -15.9001C346.3 -22.0001 338.7 -27.5001 330 -29.7001C325.1 -30.9001 316.2 -30.8001 316.3 -23.7001C316.3 -22.0001 316.9 -20.4001 317.5 -18.9001C320.5 -11.5001 327.3 -3.00006 322.6 4.99994C320.6 8.39994 317.6 10.9999 315.2 14.1999C310.5 20.2999 308.4 28.2999 309.4 35.8999C310.8 46.1999 320.7 65.5999 332.4 54.2999C340 46.8999 335.9 33.1999 346.1 26.7999C348.3 25.3999 350.9 24.6999 353.3 23.5999C361.1 19.8999 366.2 10.9999 364.9 2.49994Z" stroke="#F5F5F5" stroke-miterlimit="10"/>
<path d="M326.2 53.6999C322.6 53.6999 316.6 44.9999 315.4 36.1999C314.6 29.9999 316.3 23.2999 320.2 18.2999C321 17.2999 321.9 16.1999 322.9 15.1999C324.7 13.1999 326.5 11.1999 328 8.69995C334.1 -1.70005 326.4 -10.0001 322.9 -19.3001C322.4 -20.7001 322.4 -22.5001 323.4 -23.7001C324.9 -25.5001 328 -24.2001 329.9 -23.8001C338.4 -21.8001 345.8 -15.6001 350.6 -11.2001C354.9 -7.20005 360 -1.80005 361 4.29995C361.9 10.3999 358.1 17.2999 352.3 20.0999C351.6 20.3999 350.7 20.7999 349.9 21.0999C348.2 21.6999 346.4 22.4999 344.5 23.5999C337.2 28.1999 335.5 35.6999 334.1 41.5999C333.1 45.7999 332.3 49.4999 329.9 51.6999C328.9 52.5999 327.5 53.6999 326.2 53.6999Z" stroke="#F5F5F5" stroke-miterlimit="10"/>
<path d="M324.7 41.3999C324 41.4999 323.3 40.9999 322.9 40.3999C321.7 38.0999 322.2 33.6999 322.4 31.1999C322.6 27.8999 323.5 24.7999 325.5 22.0999C326.1 21.2999 326.9 20.4999 327.8 19.4999C329.8 17.2999 332 14.8999 333.9 11.5999C339.9 1.39991 328.4 -10.7001 333.5 -14.4001C335.1 -15.6001 336.9 -15.5001 338.4 -14.2001C339.3 -13.4001 339.9 -12.4001 340.5 -11.5001C342.4 -8.60009 344.6 -5.8001 347.1 -3.40009C349.2 -1.3001 351.6 1.29991 352.1 4.39991C352.5 6.99991 350.5 10.4999 347.9 11.6999C347.4 11.8999 346.7 12.1999 346 12.4999C344.2 13.1999 341.7 14.1999 339.2 15.6999C335.2 18.1999 332 21.6999 329.7 25.7999C327.6 29.5999 325.4 33.8999 325.8 38.3999C325.9 39.3999 326 40.7999 325.1 41.2999C324.9 41.3999 324.8 41.3999 324.7 41.3999Z" stroke="#F5F5F5" stroke-miterlimit="10"/>
<path d="M826.2 53.5C821.5 37.5 815.8 21.7 807.8 6.99997C802.2 -3.40003 795.1 -13.4 785.2 -19.7C776.1 -25.5 765.3 -27.8 754.8 -30.1C722.7 -36.9 733.5 12.1 726.1 28.4C720.1 41.8 708.3 52.4 694.4 57.1C689.3 58.8 683.8 59.8 679.6 63.2C675.4 66.6 673.6 73.6 677.5 77.3C679 78.8 681.2 79.4 683.1 80.3C693.7 85.5 696.9 98.9 697.5 110.6C698.1 122.3 697.5 135.1 704.4 144.7C708.7 150.7 715.6 154.7 719.2 161.2C725.5 172.4 720.1 186.7 723.3 199.1C726.1 210 737.4 218.9 748.5 216.7C763 213.7 768.5 195.9 768.6 181.1C768.7 166.3 766.8 149.9 776 138.4C786.7 125 807.7 124.6 820.1 112.7C827.7 105.5 831.1 94.7 831.4 84.3C831.7 73.8 829.1 63.5 826.2 53.5Z" stroke="#F5F5F5" stroke-miterlimit="10"/>
<path d="M745 212C737.7 212 730.2 205.6 728.1 197.8C726.9 193.2 727.1 188.1 727.3 182.7C727.6 174.6 727.8 166.3 723.5 158.6C721.1 154.4 717.8 151.2 714.5 148.2C712.2 146 710 144 708.4 141.7C703.4 134.7 703 125.2 702.6 115.2C702.5 113.5 702.5 111.9 702.4 110.3C701.5 92.8 695.6 80.8 685.2 75.7C684.6 75.4 684 75.2 683.5 74.9C682.4 74.4 681.4 74 680.9 73.5C680.8 73.4 680.3 72.9 680.3 71.7C680.4 70 681.4 68 682.7 66.9C685.1 64.9 688.6 63.9 692.3 62.8C693.5 62.4 694.7 62.1 695.9 61.7C711 56.6 724 44.9 730.6 30.3C733.2 24.5 733.8 16.1 734.4 7.09998C735.8 -12.8 737.6 -25.9 749 -25.9C750.4 -25.9 752 -25.7 753.6 -25.4C763.6 -23.3 773.9 -21.1 782.4 -15.7C790.1 -10.8 796.7 -2.90003 803.3 9.19997C810.1 21.8 815.8 36.2 821.3 54.7C823.9 63.5 826.6 73.8 826.4 84C826.1 94.2 822.6 103.3 816.6 108.9C811.5 113.7 804.6 116.5 797.2 119.4C788 123 778.5 126.8 772 135.1C763.1 146.2 763.3 161 763.5 174C763.5 176.4 763.6 178.7 763.5 180.9C763.4 194.6 758.4 209.4 747.4 211.6C746.7 212 745.8 212 745 212Z" stroke="#F5F5F5" stroke-miterlimit="10"/>
<path d="M738.7 195.3C737.5 194.5 736.6 193.2 736.2 191.8C735.4 189.1 736.2 186 736.3 183.3C736.6 174.1 737 162.7 730.6 151.4C724.7 140.8 714.5 137.1 712.6 123.9C711.4 115.8 711.9 107.3 708.8 99.7C706 92.9 700.2 87.1 699.7 79.7C699 70.2 707.3 62.6 715.3 57.6C724 52.2 732 47.4 737 38.2C742.8 27.5 744.1 15.2 742.8 3.29999C742.4 -0.200006 741.8 -3.80001 743.2 -7.00001C747.4 -16.5 759.9 -10 765.7 -6.20001C772.6 -1.70001 777.9 7.89999 782.2 14.7C792.4 30.8 799.8 48.7 803.7 67.4C805.5 75.9 806.5 85.2 802.4 92.9C797.3 102.5 786 106.6 775.9 110.5C763.2 115.4 755.8 121.9 749.2 133.7C742.4 145.9 742.3 160.8 742.5 174.3C742.7 180.6 742 189.9 738.7 195.3Z" stroke="#F5F5F5" stroke-miterlimit="10"/>
<path d="M736.2 145.3C733.1 146 730.4 140.8 728.3 138.3C726 135.4 724 132.2 723.5 128.4C723.2 126.1 723 123.7 722.8 121.2C722.3 115.2 721.8 108.5 719.1 101.9C717.8 98.7 716.1 95.9 714.6 93.4C712.7 90.3 710.9 87.3 710.8 85C710.5 81.3 714.6 76.5 721.7 72L722.9 71.2C731.7 65.7 740.9 60 746.9 48.8C753.2 37.3 752.6 23.4 753.2 10.6C753.3 8.89997 753.5 6.99997 754.9 5.89997C756 5.09997 757.5 5.09997 758.7 5.69997C759.9 6.19997 760.9 7.19997 761.9 8.19997C778.9 26 790 51.7 795 75.5C796.3 81.5 797.4 89.1 794.6 94.3C791.4 100.4 782.6 103.7 774.1 107L773.3 107.3C765.2 110.4 757.7 114.8 751.7 121C748 124.8 745.2 129.2 742.7 133.8C741 137 740.6 141.4 738.1 144.1C737.5 144.8 736.8 145.2 736.2 145.3Z" stroke="#F5F5F5" stroke-miterlimit="10"/>
<path d="M736.9 134.6C735.9 134.9 734.9 133.8 734.4 130.2C734.1 128.2 733.9 125.9 733.7 123.5C732.9 113.6 731.5 103.3 725.7 94.9C724.3 92.9 722.9 90.6 722.9 88.2C722.8 84.1 727.2 82.8 730.1 81C739.3 75.2 749.8 68.7 756.9 55.6C760.9 48.2 762.8 39.6 762.5 31.2C762.4 29.3 762.4 27.1 764 26.1C765.4 25.3 767.2 25.9 768.3 27.1C772 31.4 774.8 38.3 777.4 43.5C781.9 52.2 785.7 61.3 788.6 70.7C790.5 76.7 792 83.1 790.4 89.2C787.8 98.8 780.3 100.6 772.1 103.1C763.8 105.6 755.1 112.1 749.1 118.3C746.6 120.9 744.5 123.8 742.6 126.8C741.2 128.9 738.8 134.1 736.9 134.6Z" stroke="#F5F5F5" stroke-miterlimit="10"/>
<path d="M739.4 109.7C739 109.7 738.7 109.5 738.4 109.3C735.7 107.6 735.9 101.7 735 98.9999C733.7 95.1999 731 91.9999 729.9 88.1999C728.8 84.3999 732.7 83.8999 735.4 82.0999C737.4 80.6999 739.5 79.2999 741.4 77.7999C751.8 69.9999 761.4 59.9999 764.3 46.9999C764.5 46.0999 764.7 45.0999 765.5 44.4999C767.2 43.1999 768.4 45.9999 769 47.0999C770.6 49.7999 771.4 52.8999 772.6 55.7999C774.6 60.4999 776.4 65.3999 777.9 70.2999C779.7 75.8999 782 82.0999 777.7 87.0999C774.4 90.9999 768.9 92.0999 764.1 93.7999C758 95.9999 752.4 99.4999 747.8 104C746.1 105.5 742.3 110.1 739.4 109.7Z" stroke="#F5F5F5" stroke-miterlimit="10"/>
<path d="M737.8 93.5999C737.7 93.6999 737.5 93.7999 737.4 93.8999C737 94.1999 736.5 94.3999 736.1 94.1999C735.6 93.9999 735.5 93.3999 735.5 92.7999C735.5 91.2999 735.6 89.6999 736.3 88.3999C737.5 86.0999 739.7 86.7999 741.5 85.4999C745.6 82.3999 748.5 77.9999 751.6 73.7999C753.5 71.2999 757.6 64.6999 761.7 66.6999C762.5 67.0999 763.1 67.9999 763.2 68.8999C763.4 70.9999 762.1 72.5999 763 74.8999C763.4 75.9999 764.1 76.9999 764.3 78.1999C764.4 79.2999 764 80.3999 763.2 81.0999C762 82.0999 759.6 82.3999 758.1 82.8999C757.1 83.1999 756 83.5999 755 83.8999C748.6 86.0999 743.3 89.8999 737.8 93.5999Z" stroke="#F5F5F5" stroke-miterlimit="10"/>
<path d="M779.6 243.5C774.1 233.1 763.2 224 752 224.4C743.8 224.7 735.9 228.9 727.8 227.8C716.2 226.3 708.7 215.1 699.3 208.2C683.9 196.9 663.1 197.1 644.1 199.2C640.4 199.6 636.1 200.5 634.5 203.9C633.2 206.6 634.2 209.8 635.5 212.5C640.2 222.3 648.7 230.1 658.7 234.2C667.6 237.8 677.4 238.5 686.2 242.4C703.8 250.4 713.5 271.2 711.6 290.5C709.7 309.7 697.9 327 682.9 339.1C674 346.2 662.9 353.7 662.5 365.1C662.3 371.2 665.6 376.9 670.1 381C674.6 385.1 680.2 387.7 685.8 389.9C690.6 391.8 696 393.8 698.5 398.4C700.8 402.7 699.8 408.2 701.6 412.7C703.8 418 709.3 421 714.6 423.3C719.8 425.6 725.7 427.7 731.2 425.9C734.8 424.7 737.7 422.1 740.3 419.4C751.5 407.9 761 394.1 763.6 378.3C765.2 369.1 764.4 359.7 764.3 350.4C764.1 329.1 767.6 307.8 774.6 287.6C778.4 276.7 784.8 265.4 783.1 253.6C782.5 250.3 781.3 246.8 779.6 243.5Z" stroke="#F5F5F5" stroke-miterlimit="10"/>
<path d="M726.6 415.9C724.5 416.4 722.4 416.3 720.3 415.7C715.8 414.3 712 410.6 710.4 406.1C709.5 403.4 709.3 400.6 708.7 397.8C706.8 388.5 697.7 383.8 689.6 380.7L689.2 380.5C684.9 378.8 680.1 376.7 676.6 373.5C673.9 371 672.2 367.8 672.3 365.2C672.4 359.7 679.3 354.3 686 349C687 348.2 688 347.5 688.9 346.7C707.5 331.7 719.3 311.5 721.3 291.2C723.7 266.4 710.9 242.5 690.1 233.1C684.6 230.6 679.1 229.3 673.8 228.1C669.7 227.1 665.7 226.2 662.3 224.8C658.7 223.3 655.7 220.9 652.9 218.2C649.5 215 641.3 208.8 649 206.3C651.5 205.5 654.9 206.4 657.3 207.1C669.7 210.7 681.9 207.8 693.2 216.1C695.7 217.9 698.1 220.2 700.7 222.6C707.5 228.9 715.1 236.1 726.4 237.6C727.7 237.8 729 237.8 730.4 237.8C735.3 237.8 739.9 236.7 743.9 235.7C746.9 235 749.8 234.3 752.3 234.2C752.4 234.2 752.5 234.2 752.7 234.2C758.9 234.2 766.6 240.1 770.8 248C772.1 250.4 772.9 252.7 773.2 254.9C774.2 262.1 771.1 269.7 768.2 276.1C764.6 283.9 762 292.1 760 300.5C756.2 317.1 755.1 334.3 754.5 351.3C754.1 364 753.8 377 749.8 389C746.8 397.4 737.4 413.5 726.6 415.9Z" stroke="#F5F5F5" stroke-miterlimit="10"/>
<path d="M723.8 410.9C722.7 410.9 721.7 410.7 720.6 410.3C717.7 409.1 715.6 406.4 714.6 403.4C713 398.7 713.6 394.3 710.9 390C708.5 386.3 705.2 383.3 701.5 380.9C695.5 377.2 687.8 376.1 682.2 372.1C679.7 370.3 677.8 367.3 678.3 364.2C678.8 361.3 681.2 359.1 683.6 357.5C705.6 342.8 723.7 318.9 726.4 292C729 265 715 239 692.3 228.7C686.4 226 680.7 224.7 675.1 223.4C671.1 222.5 667.4 221.6 664.3 220.3C662.4 219.5 655.8 216.8 655.9 214.1C656 209.3 668 214.1 670.4 214.4C677.9 215.1 684.3 215.8 690.4 220.2C692.6 221.8 695 224 697.4 226.3C704.4 232.8 713 240.9 725.8 242.6C727.3 242.8 728.8 242.9 730.4 242.9C735.9 242.9 741 241.7 745 240.7C747.8 240 750.4 239.4 752.4 239.3H752.6C756.4 239.3 762.7 243.8 766.3 250.4C767.3 252.2 767.9 254.1 768.1 255.6C768.9 261.4 766.1 268.1 763.5 274C759.9 281.8 757.1 290.4 755 299.3C751.1 316.4 750 334.3 749.4 351L749.3 352.9C748.9 364.5 748.5 376.5 744.9 387.3C742.5 394.3 737.5 403.2 731.6 407.9C729.4 409.8 726.6 410.9 723.8 410.9Z" stroke="#F5F5F5" stroke-miterlimit="10"/>
<path d="M724.9 398.9C722.5 398.3 722.6 392.6 721.4 389.8C719.8 386.2 717.7 382.8 715.2 379.8C710 373.8 702.9 369.6 695 368.5C693.4 368.3 691.6 368 690.8 366.7C689.8 365.1 690.8 363.1 691.8 361.6C697.8 352.2 705.4 344.1 712.7 335.8C720 327.5 727.1 318.7 731.6 308.6C736.1 298.5 737.9 286.7 734.3 276.2C732.9 272.1 730.7 268.2 729.3 264.1C725.2 251.3 735.9 252.4 745.2 250.7C748.6 250.1 752.6 249.6 755.3 251.7C757.5 253.4 758.3 256.5 758 259.2C757.7 262 756.6 264.6 755.5 267.1C745.7 290.2 740.3 315.1 739.6 340.1C739.3 350.9 739.9 361.7 738.2 372.4C737.3 377.9 736.1 383.4 733.8 388.5C732.4 391.6 730.3 395.9 727.6 397.9C726.5 398.8 725.6 399.1 724.9 398.9Z" stroke="#F5F5F5" stroke-miterlimit="10"/>
<path d="M725.7 381.5C725.5 381.5 725.4 381.5 725.2 381.4C724 380.9 723.6 378.4 723 377.4C721.8 375.2 720.4 373.1 718.8 371.2C716.3 368.4 713.1 366.4 709.8 364.8C707.6 363.7 701.2 362.5 700.9 359.6C700.6 356.8 704.9 354.1 706.4 352.2C708.8 349.3 711.2 346.4 713.7 343.6C714.7 342.5 715.7 341.4 716.7 340.3C721.1 335.3 725.1 330 728.6 324.4C730.3 321.7 732.6 318.6 733.5 315.6C733.9 314.2 733.4 309.3 735.7 309.3C737.3 309.3 732.5 332.3 732.3 334.2C731.4 340.9 732 348.1 731.6 354.9C731.2 361.8 730.6 368.7 729.8 375.6C729.6 377 729.4 378.5 728.7 379.7C728.2 380.4 726.9 381.6 725.7 381.5Z" stroke="#F5F5F5" stroke-miterlimit="10"/>
<path d="M723.7 368.1C722.7 368.6 721.9 367.1 721.7 366.2C720.3 361.6 716.3 360.5 712.4 358.6C711.8 358.3 711.2 357.8 711 357.2C710.4 355.8 711.7 354.5 712.5 353.5C713.7 352.1 714.8 350.6 715.9 349.2C717.1 347.8 718.2 346.3 719.4 344.9C720 344.1 720.8 343.4 721.4 342.5C722 341.8 722.4 340.9 723 340.1C723.3 339.7 723.8 339.4 724.2 339.4C725 339.4 725.7 340.2 725.8 341.1C725.9 342 725.5 342.8 725.4 343.6C725.3 344.6 725.3 345.6 725.3 346.6C725.2 348.7 725.2 350.8 725.1 352.9C724.9 357.1 724.8 361.2 724.7 365.4C724.7 366.2 724.6 367.1 724.1 367.6C724 367.9 723.8 368 723.7 368.1Z" stroke="#F5F5F5" stroke-miterlimit="10"/>
<path d="M501 522.7C498.7 515.6 490.2 510.5 491.5 503.1C492 500.2 494 497.8 495.3 495.1C497.8 490 497.6 483.6 494.7 478.7C491.8 473.8 486.3 470.5 480.6 470.3C470.6 469.9 462.3 477.9 452.5 479.9C431.3 484.3 411.7 460.1 390.7 465.2C376.6 468.6 369.1 483.5 358.8 493.7C346.4 506.1 317.4 505.5 311.1 523.8C309.5 528.5 310 534.5 314.2 537.1C316.6 538.6 319.7 538.6 322.5 538.4C347.9 536.6 372.9 522.8 397.6 528.9C406.3 531 414.2 535.5 422.6 538.9C439.4 545.7 458 548 476 545.9C482.5 545.1 489.2 543.7 494.4 539.8C499.6 536 503 529 501 522.7Z" stroke="#F5F5F5" stroke-miterlimit="10"/>
<path d="M463 541.8C449.7 541.8 436.4 539.2 424.5 534.4C421.9 533.4 419.3 532.2 416.8 531C411.1 528.4 405.3 525.7 398.9 524.2C394.3 523.1 389.6 522.5 384.5 522.5C372.9 522.5 361.3 525.4 350.1 528.2C340.9 530.5 331.4 532.9 322.2 533.5C321.4 533.6 320.8 533.6 320.2 533.6C318.7 533.6 317.6 533.4 316.9 533C315.1 531.9 315 528.2 315.9 525.5C318.9 517 328.9 513.3 339.6 509.4C347.9 506.4 356.6 503.2 362.4 497.3C365.6 494.1 368.5 490.6 371.2 487.2C377.5 479.4 383.5 472.1 391.9 470.1C393.5 469.7 395.1 469.5 396.7 469.5C404.1 469.5 411.6 473.1 419.7 477C428.4 481.2 437.5 485.5 447.2 485.5C449.3 485.5 451.5 485.3 453.5 484.9C458.2 483.9 462.4 481.8 466.5 479.8C471.1 477.5 475.5 475.3 479.8 475.3C480 475.3 480.2 475.3 480.4 475.3C484.4 475.5 488.3 477.8 490.4 481.3C492.4 484.8 492.6 489.3 490.8 492.9C490.5 493.6 490 494.3 489.6 495C488.4 497 487 499.3 486.5 502.2C485.4 508.7 489.2 513.7 492.2 517.7C493.9 519.9 495.5 522.1 496.2 524.1C497.5 528.3 494.8 533.1 491.3 535.7C486.7 539.1 480.4 540.3 475.3 540.8C471.3 541.5 467.1 541.8 463 541.8Z" stroke="#F5F5F5" stroke-miterlimit="10"/>
<path d="M462.9 532C453.6 531 444.2 531 435.4 527C425.2 522.4 414.8 518.1 403.9 515.6C389.9 512.4 374.8 512.2 361.6 517.7C359.2 518.7 356.9 519.9 354.3 520.3C345.2 521.6 348.7 514.4 353.8 511.9C358.9 509.3 365.3 508.8 369.5 504.6C373 501.1 376.1 497.4 379 493.8C382.1 490 385.6 484 389.9 481.8C395.6 478.9 403.8 480.9 409.4 483.1C416.6 486 423.2 490.4 430.5 493.1C444 498 459.8 496.1 471.8 488.1C473.2 487.2 474.6 486.1 476.2 485.8C477.8 485.5 479.8 486.1 480.4 487.6C480.8 488.6 480.5 489.8 480.3 490.9C478.6 497.6 474.7 505.4 477.5 512.1C479.7 517.5 486.5 523.7 483 530C480.5 534.5 475.5 534.4 471.1 533.4C468.3 532.7 465.6 532.3 462.9 532Z" stroke="#F5F5F5" stroke-miterlimit="10"/>
<path d="M472.3 524.6C471.8 525.7 470.9 526.5 469.5 527C465.7 528.3 460 524.9 456.3 523.9C449 522 441.6 520 434.3 518.1C420 514.3 405.7 510.6 391.3 506.8C388.4 506 385.1 505 383.9 502.2C382.6 499.1 384.6 495.6 387.3 493.6C395.3 487.3 407.1 490 416.3 494.3C425.5 498.6 435 504.3 445.1 503.3C450.6 502.7 456.2 500.2 461.5 501.8C466 503.1 469.2 507.3 470.6 511.7C471.9 515 474 521.1 472.3 524.6Z" stroke="#F5F5F5" stroke-miterlimit="10"/>
<path d="M-104.2 144.5C-87.2 158.1 -69.3 172.2 -47.9 176.2C-21.3 181.1 7.80005 169.7 32.4001 181.1C36.1001 182.8 39.7 185.1 42.1 188.5C49.3 198.8 42.6 214.6 50.1 224.7C55.4 231.8 65.4 232.9 74.2 232.5C83 232 92.3 230.5 100.2 234.4C111.2 239.7 115.4 252.9 123.4 262.2C132.6 273 146.7 278 159.4 284.3C172.1 290.6 185 300 187.8 314C189.1 320.7 187.9 327.7 188.5 334.6C189.9 349.6 200.1 362.4 211.6 372.3C223.1 382.1 236.2 390 246.7 400.9C257.2 411.8 265 426.9 262 441.7C259.8 453.1 251.8 462.3 244 470.8C227.3 489.1 209.2 507.7 185.7 515.4C169.6 520.6 152.1 520.3 135.8 524.7C119.4 529.1 102.9 540.7 101.2 557.6" stroke="#F5F5F5" stroke-width="2" stroke-miterlimit="10"/>
<path d="M45.3 -87.9C51.3 -73.8 60.8001 -61.3 72.8001 -51.7C83.4001 -43.2 95.7001 -37 106.3 -28.6C116.9 -20.2 126.2 -8.60002 127.1 4.99998C127.4 10.1 126.6 15.3 127.2 20.3C129.7 39.9 152.6 50.1 160.7 68.2C169.1 86.9 159.8 109.2 165.7 128.8C170.1 143.4 182.8 156.5 180 171.5C177.9 182.6 168.3 190.2 164.5 200.5C161.9 207.5 162 226.9 174.9 218.3C177.5 216.6 179.3 213.9 180.7 211.1C184.6 203.9 187.1 196.7 196 194.6C201.9 193.2 208.2 194.1 214.2 194.8C230.5 196.5 248.6 190.9 258.9 177.6C267.7 166.1 270.4 149.9 281.9 141.2C289.9 135.2 300.5 134 309.3 129.4C337.4 114.7 336.8 80.1 342.3 53.4C347.5 28.5 381.7 23 395.1 3.99998C401 -4.40002 402 -15.7 399.2 -25.6C396.4 -35.5 390.3 -44.2 383 -51.5" stroke="#F5F5F5" stroke-width="2" stroke-miterlimit="10"/>
<path d="M800.6 -92C780 -97.2 758.5 -84.4 745.9 -67.2C733.4 -50.1 727.5 -29.1 719.9 -9.30002C712.3 10.5 701.8 30.6 683.6 41.7C678.7 44.7 673.3 47 668.7 50.5C664.7 53.6 661.5 57.6 657.3 60.4C646.2 67.8 631.1 65 619.4 58.6C607.8 52.1 598.3 42.5 587 35.4C572.8 26.5 555.9 21.8 539.2 22.3C530.5 22.5 521.5 24.2 514.5 29.3C507.4 34.4 502.7 43.3 504.5 51.8C507.3 64.7 523.9 74.4 519.9 87C517.3 95.5 506.9 98.5 501 105.2C490.2 117.5 498 137.2 509.3 149C520.6 160.8 535.5 170.7 540.4 186.3C546.4 205.5 535 225.5 524 242.4C519.8 248.9 515.2 255.6 508.2 258.9C498.9 263.2 487.8 259.9 479 254.6C470.2 249.3 462.6 242.1 453.4 237.5C446.5 234.1 436.2 233.5 433.2 240.5C431.2 245.1 433.9 250.8 438 253.7C442.1 256.6 447.3 257.5 452.3 258.3C479.1 262.6 508 268.3 525.8 288.8C541.6 307 561.7 295.7 577.7 281.7C592.7 268.6 600.3 240.5 624.1 240.6C635.8 240.7 647.5 248.8 659 251.5C668.4 253.8 678 255.9 686.4 260.8C694.8 265.7 701.9 273.8 702.8 283.4C704.4 299 687.6 325.5 677.6 336.8C667.3 348.4 652.6 356 654.1 373.9C654.6 379.7 658.2 382.6 660.8 387.6C663.7 393.3 664.9 399.6 667.7 405.4C679.7 430.6 706.5 445.8 699.2 477.6C692.8 505.1 665.5 519 648.7 539.4" stroke="#F5F5F5" stroke-width="2" stroke-miterlimit="10"/>
<path d="M251.9 533.9C254.7 514.7 265 493.8 284 489.7C298.6 486.6 313.6 494.6 328.4 492.7C344.3 490.7 356.4 478.1 368.6 467.7C380.8 457.3 397.4 448.1 412.2 454.3C420.8 457.9 427.4 466.4 436.7 467.3C441.9 467.8 447.1 465.8 451.9 463.6C459.2 460.3 466.5 456.4 474.4 455C482.3 453.5 491.2 454.7 497 460.4C506.7 470 502.9 486.1 504.7 499.6C506.3 512.1 513.6 523.8 524.1 530.8" stroke="#F5F5F5" stroke-width="2" stroke-miterlimit="10"/>
</g>
<defs>
<clipPath id="clip0_207_2">
<rect width="750" height="500" fill="white"/>
</clipPath>
</defs>
</svg>
