<svg width="125" height="125" viewBox="0 0 125 125" fill="none" xmlns="http://www.w3.org/2000/svg">
<path d="M76.1685 7.4592H75.5164C38.4512 7.4592 0.788086 36.3723 0.0544434 92.0515L0 113.465C0 115.709 1.83105 117.541 4.07617 117.541H41.2227C31.4177 102.013 30.6443 79.7736 41.4404 60.9646C46.814 51.6574 54.9834 43.7329 64.9187 39.4973C69.4099 37.5014 74.7947 36.5183 78.8047 36.083L83.4243 36.0735C86.3865 36.1821 89.457 37.6223 92.5278 40.394C94.7014 42.3234 95.9517 45.1762 96.7126 48.4104C97.9355 53.7365 97.6907 60.0407 97.5005 64.7963C97.3376 69.3344 97.2288 72.0791 98.1526 74.0898C99.2124 76.3725 101.604 77.4594 104.212 76.8886C110.3 75.5568 121.549 62.3234 121.631 46.9157C121.739 23.9265 103.043 7.70383 76.1685 7.4592Z" fill="#57DEFF"/>
<path d="M54.0762 68.981C54.6484 58.1065 58.9275 47.075 68.0435 40.9647C71.5488 38.6006 75.7881 36.97 80.8423 36.2908C81.6851 36.1006 82.5542 36.0462 83.4238 36.0735L92.5273 35.9376L87.011 28.3831C85.5852 27.9551 84.1462 27.7852 82.8806 27.7852C61.7644 27.7852 44.5857 39.2173 34.3753 56.9156C23.1966 76.3411 22.7305 99.625 31.8753 117.541H84.5107C64.332 111.477 53.0603 89.2566 54.0762 68.981Z" fill="#62BEF9"/>
<path d="M120.924 93.0842C92.989 93.0842 74.1574 83.3289 69.2661 66.2637C67.5542 60.2583 67.8801 54.28 69.4565 49.2527C71.541 42.5811 76.4272 35.8545 83.4236 36.0732C86.3857 36.1819 89.4563 37.6221 92.5271 40.3938C94.7006 42.3232 95.9509 45.176 96.7119 48.4102C97.4182 46.6438 97.8256 44.7417 97.8256 42.7307C97.8256 35.9102 93.2607 30.1763 87.0105 28.3828C80.3208 26.6223 60.1469 29.8872 50.7873 48.9807C47.9885 54.6057 46.3039 61.209 45.9504 68.573C45.032 86.3687 52.4472 105.969 67.1736 117.54H120.924C123.179 117.54 125 115.72 125 113.464V97.1597C125 94.9048 123.18 93.0842 120.924 93.0842Z" fill="#4DA6FF"/>
</svg>
