<svg width="512" height="352" viewBox="0 0 512 352" fill="none" xmlns="http://www.w3.org/2000/svg">
<path d="M472 178.3C471.1 137.2 437.4 104 396 104C367.9 104 342.2 119.6 329 144.1C325.9 144.3 322.8 144.8 319.8 145.5C316.4 95.6 274.7 56 224 56C183.2 56 146.9 82 133.5 120C80.9 119.2 38.2 162.7 40.1 215.4C15.5 227.5 0 252.3 0 280C0 319.7 32.3 352 72 352H292C327.3 352 356 323.3 356 288H456C486.9 288 512 262.9 512 232C512 206.8 495.5 185.2 472 178.3ZM224 72C267.8 72 304 107.5 304 152.2C291.8 160 283 173 280.7 187.7C275.6 189.7 270.7 192.7 266.7 196C253.6 186.9 237 182.4 219.8 184.4C210 152.9 183.3 128.2 149.9 121.6C162.1 92 191.3 72 224 72ZM292 336H72C41.1 336 16 310.9 16 280C16 239.9 56.5 213.3 93 228.1C97.1 229.8 101.8 227.8 103.4 223.7C105.1 219.6 103.1 214.9 99 213.3C85.8 207.9 70.8 206.5 56.1 209.8C57.2 168.9 90.8 136 132 136C167.9 136 198.4 160.6 206.2 195.4C207.2 199.9 211.7 202.4 215.9 201.4C242.1 195.1 268.6 209.9 277.2 235C278.4 238.6 282 240.8 285.8 240.3C314 236.7 340 258.7 340 288C340 314.5 318.5 336 292 336ZM456 272C349.2 272 354 272 354 271.9C346.4 242.7 319.4 223.1 290 224C287.1 217.7 283.2 211.7 278.9 206.8C281.9 204.6 286 202.5 290.3 201.3C293.6 200.4 296 197.4 296.1 194C297.1 174 314.6 158.8 333.6 160C336.9 160.2 340 158.3 341.4 155.3C351 133.9 372.4 120 396 120C427.7 120 453.8 144.8 455.9 176C449.5 176 443.3 177.1 437.4 179.2C433.2 180.7 431.1 185.2 432.5 189.4C433.7 192.7 436.7 194.7 440 194.7C443.2 194.7 446.6 192 456 192C478.1 192 496 209.7 496 232C496 254.1 478.1 272 456 272Z" fill="#19A0F6"/>
<path d="M224 40C228.4 40 232 36.4 232 32V8C232 3.6 228.4 0 224 0C219.6 0 216 3.6 216 8V32C216 36.4 219.6 40 224 40Z" fill="#19A0F6"/>
<path d="M157.1 52.1C159.3 55.9 164.2 57.2 168 55C171.8 52.8 173.1 47.9 170.9 44.1L158.9 23.3C156.7 19.5 151.8 18.2 148 20.4C144.2 22.6 142.9 27.5 145.1 31.3L157.1 52.1Z" fill="#19A0F6"/>
<path d="M95.3 86.9C118.2 100.1 117.2 100 120.1 100C128.3 100 131.2 89.1 124.1 85.1L103.3 73.1C99.5 70.9 94.6 72.2 92.4 76C90.2 79.8 91.5 84.7 95.3 86.9Z" fill="#19A0F6"/>
<path d="M280 55C283.8 57.2 288.7 55.9 290.9 52.1L302.9 31.3C305.1 27.5 303.8 22.6 300 20.4C296.2 18.2 291.3 19.5 289.1 23.3L277.1 44.1C274.9 47.9 276.2 52.8 280 55Z" fill="#19A0F6"/>
<path d="M327.9 100C330.7 100 329.8 100.1 352.7 86.9C356.5 84.7 357.8 79.8 355.6 76C353.4 72.2 348.5 70.9 344.7 73.1L323.9 85.1C316.9 89.2 319.8 100 327.9 100Z" fill="#19A0F6"/>
</svg>
