<svg width="512" height="486" viewBox="0 0 512 486" fill="none" xmlns="http://www.w3.org/2000/svg">
<path d="M75.9 275C85.1 267.6 98 267.6 107.3 275L139.4 300.7C159.7 317 188 316.9 208.3 300.7L240.4 275C249.6 267.6 262.5 267.6 271.8 275L303.9 300.7C324.2 317 352.5 316.9 372.8 300.7L404.9 275C414.1 267.6 427 267.6 436.3 275L493.4 320.8L512.2 297.4L455.1 251.6C434.8 235.4 406.5 235.4 386.2 251.6L354.1 277.3C344.9 284.7 332 284.7 322.7 277.3L290.6 251.6C270.3 235.4 242 235.4 221.7 251.6L189.6 277.3C180.4 284.7 167.5 284.7 158.2 277.3L126 251.5C105.7 235.3 77.4 235.3 57.1 251.5L0 297.3L18.8 320.7L75.9 275Z" fill="#19A0F6"/>
<path d="M386 333.7L353.9 359.4C344.7 366.8 331.8 366.8 322.5 359.4L290.4 333.7C270.1 317.5 241.8 317.4 221.5 333.7L189.4 359.4C180.2 366.8 167.3 366.8 158 359.4L126 333.7C105.7 317.4 77.4 317.4 57.1 333.7L0 379.5L18.8 402.9L75.9 357.1C85.1 349.7 98 349.7 107.3 357.1L139.4 382.8C159.7 399 188 399 208.3 382.8L240.4 357.1C249.6 349.7 262.5 349.7 271.8 357.1L303.9 382.8C324.2 399 352.5 399 372.8 382.8L404.9 357.1C414.1 349.7 427 349.7 436.3 357.1L493.4 402.9L512.2 379.5L455.1 333.7C434.6 317.5 406.2 317.5 386 333.7Z" fill="#19A0F6"/>
<path d="M386 415.9L353.9 441.6C344.7 449 331.8 449 322.5 441.6L290.4 415.9C270.1 399.7 241.8 399.6 221.5 415.9L189.4 441.6C180.2 449 167.3 449 158 441.6L126 415.9C105.7 399.7 77.4 399.6 57.1 415.9L0 461.7L18.8 485.1L75.9 439.3C85.1 431.9 98 431.9 107.3 439.3L139.4 465C159.7 481.2 188 481.2 208.3 465L240.4 439.3C249.6 431.9 262.5 431.9 271.8 439.3L303.9 465C324.2 481.2 352.5 481.2 372.8 465L404.9 439.3C414.1 431.9 427 431.9 436.3 439.3L493.4 485.1L512.2 461.7L454.9 416C434.6 399.7 406.2 399.7 386 415.9Z" fill="#19A0F6"/>
<path d="M241 58V168.2H271.1V58.7L318.2 105.8L339.4 84.5L255.7 0.800003L172 84.5L193.3 105.8L241 58Z" fill="#19A0F6"/>
</svg>
