<svg width="512" height="332" viewBox="0 0 512 332" fill="none" xmlns="http://www.w3.org/2000/svg">
<g clip-path="url(#clip0_1_37)">
<path d="M409.6 265.4C379.3 265.4 363.6 276.4 349.8 286.1C337.7 294.6 328.1 301.4 307.2 301.4C286.3 301.4 276.8 294.7 264.6 286.1C250.8 276.4 235.1 265.4 204.8 265.4C174.5 265.4 158.8 276.4 145 286.1C132.9 294.6 123.3 301.4 102.4 301.4C81.5 301.4 72 294.7 59.8 286.1C46 276.5 30.3 265.4 0 265.4V295.4C20.9 295.4 30.4 302.1 42.6 310.7C56.4 320.4 72.1 331.4 102.4 331.4C132.7 331.4 148.4 320.4 162.2 310.7C174.3 302.2 183.9 295.4 204.8 295.4C225.7 295.4 235.2 302.1 247.4 310.7C261.2 320.4 276.9 331.4 307.2 331.4C337.5 331.4 353.2 320.4 367 310.7C379.1 302.2 388.7 295.4 409.6 295.4C430.5 295.4 440 302.1 452.2 310.7C466 320.4 481.7 331.4 512 331.4V301.4C491.1 301.4 481.6 294.7 469.4 286.1C455.6 276.5 439.9 265.4 409.6 265.4Z" fill="#19A0F6"/>
<path d="M409.6 88.5C379.3 88.5 363.6 99.5 349.8 109.2C337.7 117.7 328.1 124.5 307.2 124.5C286.3 124.5 276.8 117.8 264.6 109.2C250.8 99.5 235.1 88.5 204.8 88.5C174.5 88.5 158.8 99.5 145 109.2C132.9 117.7 123.3 124.5 102.4 124.5C81.5 124.5 72 117.8 59.8 109.2C46 99.5 30.3 88.5 0 88.5V118.5C20.9 118.5 30.4 125.2 42.6 133.8C56.4 143.5 72.1 154.5 102.4 154.5C132.7 154.5 148.4 143.5 162.2 133.8C174.3 125.3 183.9 118.5 204.8 118.5C225.7 118.5 235.2 125.2 247.4 133.8C261.2 143.5 276.9 154.5 307.2 154.5C337.5 154.5 353.2 143.5 367 133.8C379.1 125.3 388.7 118.5 409.6 118.5C430.5 118.5 440 125.2 452.2 133.8C466 143.5 481.7 154.5 512 154.5V124.5C491.1 124.5 481.6 117.8 469.4 109.2C455.6 99.5 439.9 88.5 409.6 88.5Z" fill="#19A0F6"/>
<path d="M409.6 177C379.3 177 363.6 188 349.8 197.7C337.7 206.2 328.1 213 307.2 213C286.3 213 276.8 206.3 264.6 197.7C250.8 188 235.1 177 204.8 177C174.5 177 158.8 188 145 197.7C132.9 206.2 123.3 213 102.4 213C81.5 213 72 206.3 59.8 197.7C46 188 30.3 177 0 177V207C20.9 207 30.4 213.7 42.6 222.3C56.4 232 72.1 243 102.4 243C132.7 243 148.4 232 162.2 222.3C174.3 213.8 183.9 207 204.8 207C225.7 207 235.2 213.7 247.4 222.3C261.2 232 276.9 243 307.2 243C337.5 243 353.2 232 367 222.3C379.1 213.8 388.7 207 409.6 207C430.5 207 440 213.7 452.2 222.3C466 232 481.7 243 512 243V213C491.1 213 481.6 206.3 469.4 197.7C455.6 188 439.9 177 409.6 177Z" fill="#19A0F6"/>
<path d="M469.4 20.7C455.6 11 439.9 0 409.6 0C379.3 0 363.6 11 349.8 20.7C337.6 29.3 328 36 307.2 36C286.3 36 276.8 29.3 264.6 20.7C250.8 11 235.1 0 204.8 0C174.5 0 158.8 11 145 20.7C132.8 29.3 123.2 36 102.4 36C81.6 36 72 29.3 59.8 20.7C46 11 30.3 0 0 0V30C20.9 30 30.4 36.7 42.6 45.3C56.4 55 72.1 66 102.4 66C132.7 66 148.4 55 162.2 45.3C174.3 36.8 183.9 30 204.8 30C225.7 30 235.2 36.7 247.4 45.3C261.2 55 276.8 66 307.2 66C337.5 66 353.2 55 367 45.3C379.1 36.8 388.7 30 409.6 30C430.5 30 440 36.7 452.2 45.3C466 55 481.7 66 512 66V36C491.1 36 481.6 29.3 469.4 20.7Z" fill="#19A0F6"/>
</g>
<defs>
<clipPath id="clip0_1_37">
<rect width="512" height="331.4" fill="white"/>
</clipPath>
</defs>
</svg>
