<svg width="233" height="60" viewBox="0 0 233 60" fill="none" xmlns="http://www.w3.org/2000/svg">
<rect width="233" height="60" rx="3" fill="white"/>
<path d="M89.5673 18.296C86.1433 18.296 83.5193 19.368 81.6953 21.512C79.9033 23.624 79.0073 26.568 79.0073 30.344C79.0073 32.136 79.2153 33.784 79.6313 35.288C80.0793 36.76 80.7193 38.024 81.5513 39.08C82.4153 40.136 83.4713 40.968 84.7193 41.576C85.9993 42.152 87.4873 42.44 89.1833 42.44C90.2393 42.44 91.1513 42.408 91.9193 42.344C92.6873 42.248 93.2953 42.136 93.7433 42.008V30.056H99.7913V46.04C98.9593 46.36 97.5513 46.712 95.5673 47.096C93.5833 47.48 91.2953 47.672 88.7033 47.672C86.3033 47.672 84.1113 47.288 82.1273 46.52C80.1433 45.752 78.4473 44.632 77.0393 43.16C75.6633 41.688 74.5913 39.88 73.8233 37.736C73.0553 35.592 72.6713 33.128 72.6713 30.344C72.6713 27.56 73.0873 25.096 73.9193 22.952C74.7833 20.808 75.9513 19 77.4233 17.528C78.8953 16.024 80.6233 14.888 82.6073 14.12C84.5913 13.352 86.7033 12.968 88.9433 12.968C90.4793 12.968 91.8393 13.08 93.0233 13.304C94.2393 13.496 95.2793 13.72 96.1433 13.976C97.0073 14.232 97.7113 14.504 98.2552 14.792C98.8313 15.08 99.2313 15.288 99.4553 15.416L97.6313 20.36C96.6713 19.784 95.4713 19.304 94.0312 18.92C92.6233 18.504 91.1353 18.296 89.5673 18.296ZM129.197 34.424C129.197 36.408 128.909 38.216 128.333 39.848C127.757 41.48 126.941 42.872 125.885 44.024C124.829 45.176 123.549 46.072 122.045 46.712C120.573 47.352 118.941 47.672 117.149 47.672C115.357 47.672 113.725 47.352 112.253 46.712C110.781 46.072 109.517 45.176 108.461 44.024C107.405 42.872 106.573 41.48 105.965 39.848C105.389 38.216 105.101 36.408 105.101 34.424C105.101 32.44 105.389 30.648 105.965 29.048C106.573 27.416 107.405 26.024 108.461 24.872C109.549 23.72 110.829 22.84 112.301 22.232C113.773 21.592 115.389 21.272 117.149 21.272C118.909 21.272 120.525 21.592 121.997 22.232C123.501 22.84 124.781 23.72 125.837 24.872C126.893 26.024 127.709 27.416 128.285 29.048C128.893 30.648 129.197 32.44 129.197 34.424ZM123.245 34.424C123.245 31.928 122.701 29.96 121.613 28.52C120.557 27.048 119.069 26.312 117.149 26.312C115.229 26.312 113.725 27.048 112.637 28.52C111.581 29.96 111.053 31.928 111.053 34.424C111.053 36.952 111.581 38.952 112.637 40.424C113.725 41.896 115.229 42.632 117.149 42.632C119.069 42.632 120.557 41.896 121.613 40.424C122.701 38.952 123.245 36.952 123.245 34.424ZM143.532 42.488C145.708 42.488 147.292 42.12 148.284 41.384C149.276 40.648 149.772 39.608 149.772 38.264C149.772 37.464 149.596 36.776 149.244 36.2C148.924 35.624 148.444 35.112 147.804 34.664C147.196 34.184 146.444 33.752 145.548 33.368C144.652 32.952 143.628 32.552 142.476 32.168C141.324 31.752 140.204 31.304 139.116 30.824C138.06 30.312 137.116 29.688 136.284 28.952C135.484 28.216 134.828 27.336 134.316 26.312C133.836 25.288 133.596 24.056 133.596 22.616C133.596 19.608 134.636 17.256 136.716 15.56C138.796 13.832 141.628 12.968 145.212 12.968C147.292 12.968 149.132 13.208 150.732 13.688C152.364 14.136 153.644 14.632 154.572 15.176L152.7 20.072C151.612 19.464 150.412 19 149.1 18.68C147.82 18.36 146.492 18.2 145.116 18.2C143.484 18.2 142.204 18.536 141.276 19.208C140.38 19.88 139.932 20.824 139.932 22.04C139.932 22.776 140.076 23.416 140.364 23.96C140.684 24.472 141.116 24.936 141.66 25.352C142.236 25.768 142.892 26.152 143.628 26.504C144.396 26.856 145.228 27.192 146.124 27.512C147.692 28.088 149.084 28.68 150.3 29.288C151.548 29.864 152.588 30.568 153.42 31.4C154.284 32.2 154.94 33.16 155.388 34.28C155.836 35.368 156.06 36.696 156.06 38.264C156.06 41.272 154.988 43.608 152.844 45.272C150.732 46.904 147.628 47.72 143.532 47.72C142.156 47.72 140.892 47.624 139.74 47.432C138.62 47.272 137.612 47.064 136.716 46.808C135.852 46.552 135.1 46.296 134.46 46.04C133.82 45.752 133.308 45.496 132.924 45.272L134.7 40.328C135.564 40.808 136.732 41.288 138.204 41.768C139.676 42.248 141.452 42.488 143.532 42.488ZM181.694 46.232C180.574 46.52 179.118 46.808 177.326 47.096C175.534 47.416 173.566 47.576 171.422 47.576C169.406 47.576 167.71 47.288 166.334 46.712C164.99 46.136 163.902 45.336 163.07 44.312C162.27 43.288 161.694 42.072 161.342 40.664C160.99 39.224 160.814 37.656 160.814 35.96V21.896H166.622V35.048C166.622 37.736 167.006 39.656 167.774 40.808C168.574 41.96 169.95 42.536 171.902 42.536C172.606 42.536 173.342 42.504 174.11 42.44C174.91 42.376 175.502 42.296 175.886 42.2V21.896H181.694V46.232ZM203.391 27.128C202.911 26.968 202.239 26.808 201.375 26.648C200.543 26.456 199.567 26.36 198.447 26.36C197.807 26.36 197.119 26.424 196.383 26.552C195.679 26.68 195.183 26.792 194.895 26.888V47H189.087V23.096C190.207 22.68 191.599 22.296 193.263 21.944C194.959 21.56 196.831 21.368 198.879 21.368C199.263 21.368 199.711 21.4 200.223 21.464C200.735 21.496 201.247 21.56 201.759 21.656C202.271 21.72 202.767 21.816 203.247 21.944C203.727 22.04 204.111 22.136 204.399 22.232L203.391 27.128ZM218.67 9.752C220.014 9.752 221.198 9.88 222.222 10.136C223.246 10.36 224.014 10.568 224.526 10.76L223.422 15.56C222.878 15.304 222.238 15.096 221.502 14.936C220.798 14.776 220.03 14.696 219.198 14.696C218.27 14.696 217.486 14.84 216.846 15.128C216.206 15.384 215.694 15.752 215.31 16.232C214.926 16.712 214.654 17.304 214.494 18.008C214.334 18.68 214.254 19.416 214.254 20.216V21.896H223.374V26.744H214.254V47H208.446V20.12C208.446 16.888 209.294 14.36 210.99 12.536C212.686 10.68 215.246 9.752 218.67 9.752Z" fill="#233044"/>
<path d="M33.3739 12.3869H33.1652C21.3044 12.3869 9.25219 21.6391 9.01742 39.4565L9 46.3087C9 47.027 9.58594 47.613 10.3044 47.613H22.1913C19.0537 42.644 18.8062 35.5276 22.2609 29.5087C23.9805 26.5304 26.5947 23.9945 29.774 22.6391C31.2112 22.0005 32.9343 21.6859 34.2175 21.5466L35.6958 21.5435C36.6437 21.5783 37.6262 22.0391 38.6089 22.9261C39.3045 23.5435 39.7045 24.4564 39.948 25.4913C40.3394 27.1957 40.261 29.213 40.2002 30.7348C40.148 32.187 40.1132 33.0653 40.4088 33.7087C40.748 34.4392 41.5132 34.787 42.348 34.6044C44.2959 34.1782 47.8958 29.9435 47.9219 25.013C47.9565 17.6565 41.9738 12.4652 33.3739 12.3869Z" fill="#57DEFF"/>
<path d="M26.3044 32.0739C26.4876 28.5941 27.8569 25.064 30.774 23.1087C31.8957 22.3522 33.2522 21.8304 34.8696 21.6131C35.1393 21.5522 35.4174 21.5348 35.6957 21.5435L38.6088 21.5L36.8436 19.0826C36.3873 18.9456 35.9268 18.8913 35.5218 18.8913C28.7647 18.8913 23.2675 22.5495 20.0001 28.213C16.4229 34.4292 16.2738 41.88 19.2001 47.613H36.0435C29.5863 45.6727 25.9794 38.5621 26.3044 32.0739Z" fill="#62BEF9"/>
<path d="M47.6956 39.7869C38.7565 39.7869 32.7304 36.6652 31.1652 31.2044C30.6174 29.2827 30.7217 27.3696 31.2261 25.7609C31.8931 23.6259 33.4567 21.4734 35.6956 21.5434C36.6435 21.5782 37.626 22.0391 38.6087 22.926C39.3042 23.5434 39.7043 24.4563 39.9478 25.4912C40.1738 24.926 40.3042 24.3173 40.3042 23.6738C40.3042 21.4912 38.8435 19.6564 36.8434 19.0825C34.7027 18.5191 28.247 19.5639 25.252 25.6738C24.3563 27.4738 23.8173 29.5869 23.7042 31.9434C23.4103 37.638 25.7831 43.9102 30.4956 47.6129H47.6956C48.4174 47.6129 48.9999 47.0303 48.9999 46.3085V41.0911C49 40.3695 48.4175 39.7869 47.6956 39.7869Z" fill="#4DA6FF"/>
</svg>
