<svg width="512" height="448" viewBox="0 0 512 448" fill="none" xmlns="http://www.w3.org/2000/svg">
<g clip-path="url(#clip0_1_8)">
<path d="M495.3 347.8C380.9 347.8 303.8 307.8 283.8 238C269.4 187.6 290 138 317.3 121C326.7 115.1 332.4 114.8 343.5 114.3C355.1 115.3 367.1 121.2 379.1 132C402.5 153.1 400.7 200.6 399.5 232C398.8 250.6 398.4 261.8 402.2 270C406.6 279.3 416.3 283.9 427 281.5C443.5 277.9 461.4 258.1 472.6 240.8C489 215.6 498.1 186.4 498.3 158.7C498.6 109.6 479 68.1 441.8 38.6C408.5 12.2 362.4 -2.5 311.9 -3C236.6 -3.7 161 26.5 104.6 79.9C57.9 124.1 1.9 205.7 0.100003 343.4C-0.299997 377.6 1.4 407.7 0.100003 430.3C-0.399997 439.9 7.2 447.9 16.8 447.9C62.1 447.9 448.9 447.9 495.3 447.9C504.5 447.9 512 440.4 512 431.2V364.4C512 355.2 504.5 347.8 495.3 347.8ZM33.9 414.5C34.1 393.6 33.1 369.8 33.4 343.8C36.4 118.2 194.9 29.2 311.6 30.4C388.2 31.1 465.3 71 464.8 158.5C464.6 194 446.3 223 432.6 238C432.7 236.4 432.7 234.7 432.8 233.2C434.2 195.6 436.4 138.7 401.5 107.1C381.6 89.1 360 80.2 338.8 80.6C296 79.8 254.4 90.3 218.2 111.1C144.8 153.3 99.9 233.1 100.1 315.9C100.2 349.9 108 383.5 122.9 414.5H33.9ZM160.5 414.5C114.1 335 129.1 240.2 188.8 176.3C176.7 200.1 169.6 226.9 168.2 254.9C165.9 299.9 178.6 343.6 203.8 377.9C214.2 392.1 226.5 404.3 240.4 414.5H160.5ZM478.6 414.5H328.6C236 401.1 198 325.6 201.5 256.6C203.6 214.3 221.9 171.2 257.9 143.6C243.8 176.3 242.1 213.7 251.6 247.1C262.6 285.7 288.1 318.2 325.2 341.2C364.6 365.6 416.1 378.9 478.5 380.9L478.6 414.5Z" fill="#19A0F6"/>
</g>
<defs>
<clipPath id="clip0_1_8">
<rect width="512" height="447.9" fill="white"/>
</clipPath>
</defs>
</svg>
